<?xml version="1.0" encoding="UTF-8"?>
<svg xmlns="http://www.w3.org/2000/svg" xmlns:xlink="http://www.w3.org/1999/xlink" version="1.2" >
<font id="Thorce">
<font-face  font-family="Thorce" units-per-em="1000" ascent="750" descent="-250" font-style="normal" font-weight="400" font-stretch="normal" cap-height="800" x-height="500" underline-position="-75" underline-thickness="50" />
<missing-glyph  horiz-adv-x="202" d="" />
<glyph glyph-name="NULL" d="" />
<glyph glyph-name="CR" unicode="&#xd;" horiz-adv-x="202" d="" />
<glyph glyph-name="space" unicode="&#x20;" horiz-adv-x="202" d="" />
<glyph glyph-name="exclam" unicode="&#x21;" horiz-adv-x="218" d="M40 210 C40 190 56 174 76 174 L142 174 C162 174 178 190 178 210 L178 591 C178 611 162 627 142 627 L76 627 C56 627 40 611 40 591 L40 210 Z M40 36 C40 16 56 0 76 0 L142 0 C162 0 178 16 178 36 L178 88 C178 108 162 124 142 124 L76 124 C56 124 40 108 40 88 L40 36 Z " />
<glyph glyph-name="quotedbl" unicode="&#x22;" horiz-adv-x="374" d="M58 475 C55 454 72 435 94 435 L106 435 C122 435 136 446 141 461 L174 582 C180 605 163 627 139 627 L109 627 C91 627 75 614 73 596 L58 475 Z M213 476 C210 454 227 435 249 435 L261 435 C278 435 292 446 296 461 L329 582 C336 605 318 627 295 627 L265 627 C247 627 232 614 229 596 L213 476 Z " />
<glyph glyph-name="numbersign" unicode="&#x23;" horiz-adv-x="592" d="M34 243 C32 223 49 205 70 205 L130 205 L118 38 C116 17 133 0 154 0 L207 0 C226 0 241 14 243 33 L255 205 L324 205 L312 38 C310 17 327 0 348 0 L401 0 C419 0 435 14 436 33 L449 205 L513 205 C532 205 548 220 549 239 L551 263 C552 284 535 302 515 302 L456 302 L460 356 L523 356 C542 356 558 371 559 390 L561 414 C563 435 546 453 525 453 L467 453 L477 588 C478 609 462 626 441 626 L389 626 C370 626 354 612 353 593 L343 453 L274 453 L284 588 C285 609 269 626 248 626 L194 626 C176 626 160 612 159 593 L148 453 L83 453 C64 453 48 438 47 419 L45 395 C44 374 60 356 81 356 L141 356 L137 302 L71 302 C52 302 37 287 35 268 L34 243 Z M263 302 L267 356 L336 356 L332 302 L263 302 Z " />
<glyph glyph-name="dollar" unicode="&#x24;" horiz-adv-x="555" d="M27 452 C27 434 29 418 34 402 C39 388 45 375 52 364 C59 353 68 343 80 334 C91 325 103 317 114 312 C125 306 138 300 153 295 C168 290 181 286 193 283 C204 280 216 278 230 275 C232 275 233 273 233 271 L233 114 C233 112 231 110 229 111 C207 112 184 116 160 121 C135 126 114 132 97 137 C90 139 83 141 75 144 C51 152 27 135 27 110 L27 63 C27 48 38 34 53 29 C120 8 179 -5 230 -8 C232 -8 233 -10 233 -12 L233 -20 C233 -40 249 -56 269 -56 L293 -56 C313 -56 329 -40 329 -20 L329 -11 C329 -9 331 -8 333 -8 C397 -1 447 19 482 52 C518 86 535 130 535 184 C535 203 533 220 529 236 C524 251 518 265 511 276 C504 288 495 299 484 308 C472 318 461 326 450 333 C439 339 426 345 411 351 C396 356 382 360 370 363 C359 366 346 369 332 372 C330 372 329 374 329 376 L329 507 C329 509 331 511 333 511 C364 508 403 500 452 488 C475 482 497 499 497 523 L497 566 C497 582 486 596 471 600 C418 616 372 625 333 629 C331 630 329 631 329 633 L329 641 C329 661 313 677 293 677 L269 677 C249 677 233 661 233 641 L233 634 C233 632 232 631 230 631 C208 629 188 625 169 620 C149 615 131 607 113 598 C96 588 81 576 68 563 C55 550 45 533 38 514 C31 495 27 475 27 452 L27 452 Z M165 459 C165 466 166 472 168 478 C169 483 172 489 176 495 C180 501 187 506 197 510 C205 514 216 517 229 519 C231 520 233 518 233 516 L233 401 C233 398 231 397 228 397 C207 404 191 412 181 420 C171 430 165 443 165 459 L165 459 Z M329 109 L329 245 C329 248 332 249 334 249 C355 241 371 232 381 222 C392 212 397 196 397 177 C397 168 396 161 395 155 C393 148 390 142 385 135 C381 128 374 122 364 117 C356 112 346 108 334 106 C332 105 329 107 329 109 L329 109 Z " />
<glyph glyph-name="percent" unicode="&#x25;" horiz-adv-x="977" d="M21 435 C21 409 24 385 31 362 C37 339 47 318 61 298 C74 279 92 263 115 251 C139 240 166 234 196 234 C221 234 243 238 263 246 C283 253 299 264 312 277 C326 290 337 305 346 322 C355 340 361 358 365 377 C369 396 371 415 371 435 C371 455 369 474 365 493 C361 511 355 529 346 547 C337 564 326 580 313 593 C300 606 283 616 263 624 C243 632 221 636 196 636 C171 636 149 632 129 625 C109 617 92 606 79 593 C66 580 55 565 46 547 C37 530 31 512 27 493 C23 474 21 455 21 435 L21 435 Z M141 435 C141 451 142 465 145 478 C148 491 154 502 163 511 C172 521 182 525 196 525 C210 525 220 521 229 511 C238 502 244 491 247 478 C250 465 251 451 251 435 C251 410 247 388 238 371 C230 353 216 344 196 344 C176 344 162 353 154 371 C145 388 141 410 141 435 L141 435 Z M214 59 C196 35 213 1 242 1 L304 1 C316 1 326 6 333 15 L756 570 C774 593 757 627 727 627 L666 627 C654 627 644 622 637 613 L214 59 Z M599 193 C599 173 601 154 605 135 C609 116 615 98 624 81 C633 63 644 48 657 35 C670 22 687 12 707 4 C727 -4 749 -8 774 -8 C799 -8 821 -4 841 4 C861 11 878 22 891 35 C904 48 915 63 924 81 C933 98 939 116 943 135 C947 154 949 173 949 193 C949 219 946 243 939 266 C933 289 923 310 910 330 C896 350 878 365 855 377 C831 389 804 394 774 394 C743 394 716 389 693 377 C670 365 652 349 639 330 C625 310 616 289 609 266 C603 243 599 219 599 193 L599 193 Z M724 236 C727 249 732 260 741 269 C749 279 760 284 774 284 C794 284 808 275 816 257 C825 240 829 218 829 193 C829 177 828 163 825 150 C821 138 816 126 807 117 C799 107 787 103 774 103 C760 103 749 107 741 117 C732 126 727 138 724 150 C721 163 719 177 719 193 C719 209 721 223 724 236 L724 236 Z " />
<glyph glyph-name="ampersand" unicode="&#x26;" horiz-adv-x="617" d="M545 123 C539 128 537 138 537 151 L537 266 L537 266 C553 266 567 280 567 297 L567 359 C567 376 553 389 537 389 L537 389 L537 408 C537 425 523 438 506 438 L428 438 C412 437 398 424 398 407 L398 393 C398 391 396 389 395 389 L313 389 L313 390 C270 390 238 394 219 403 C199 412 190 428 190 452 C190 493 221 513 283 513 C321 513 357 509 391 500 C412 494 435 487 460 478 C479 471 500 485 500 506 L500 566 C500 578 494 588 483 594 C422 622 356 636 283 636 C214 636 159 619 116 585 C74 550 53 507 53 453 C53 405 75 364 121 332 C91 314 69 292 54 267 C39 242 31 216 31 188 C31 130 55 83 102 47 C149 10 209 -8 283 -8 C343 -8 394 5 437 31 C438 32 439 32 440 31 C440 31 440 31 441 31 C463 10 502 -2 545 -7 C563 -8 579 6 579 24 L579 88 C579 102 570 114 557 117 C552 119 548 121 545 123 L545 123 Z M367 140 C347 123 319 115 283 115 C245 115 217 121 198 135 C180 149 171 167 171 191 C171 218 183 238 206 249 C225 259 253 264 289 266 L393 266 C395 266 397 264 397 262 L397 204 C397 179 387 157 367 140 L367 140 Z " />
<glyph glyph-name="quotesingle" unicode="&#x27;" horiz-adv-x="273" d="M96 476 C93 454 110 435 132 435 L144 435 C160 435 174 446 179 461 L212 582 C218 605 201 627 177 627 L148 627 C130 627 114 614 112 596 L96 476 L96 476 Z " />
<glyph glyph-name="parenleft" unicode="&#x28;" horiz-adv-x="318" d="M35 300 C35 140 79 -6 167 -141 C176 -155 193 -161 209 -155 L258 -138 C280 -130 289 -104 276 -84 C207 20 173 149 173 301 C173 379 183 452 203 521 C220 576 245 631 278 686 C290 706 280 732 258 739 L207 755 C192 759 175 753 167 740 C122 675 90 609 69 541 C46 465 35 385 35 300 L35 300 Z " />
<glyph glyph-name="parenright" unicode="&#x29;" horiz-adv-x="318" d="M58 -138 L109 -156 C125 -162 142 -156 151 -142 C239 -7 283 139 283 299 C283 384 272 464 249 540 C228 608 195 674 151 739 C142 752 126 758 111 754 L60 738 C38 731 28 705 40 685 C73 630 98 575 114 520 C135 451 145 378 145 300 C145 156 110 27 40 -86 C28 -105 37 -131 58 -138 L58 -138 Z " />
<glyph glyph-name="asterisk" unicode="&#x2a;" horiz-adv-x="436" d="M67 540 C57 522 63 500 80 490 L108 474 C110 473 110 469 108 468 L80 452 C63 442 57 420 67 402 L84 372 C94 355 116 349 133 359 L153 370 C156 372 159 370 159 367 L159 350 C159 330 175 314 195 314 L248 314 C268 314 284 330 284 350 L284 369 C284 371 287 373 289 372 L311 360 C328 350 350 356 360 373 L377 402 C387 419 381 441 363 451 L335 467 C333 469 333 472 335 474 L363 489 C380 499 387 521 377 538 L360 568 C351 585 329 592 312 582 L289 570 C287 568 284 570 284 573 L284 591 C284 611 268 627 248 627 L195 627 C175 627 159 611 159 591 L159 573 C159 570 156 568 153 570 L133 582 C116 591 94 585 84 569 L67 540 L67 540 Z " />
<glyph glyph-name="plus" unicode="&#x2b;" horiz-adv-x="591" d="M50 287 C50 267 66 251 86 251 L229 251 C231 251 233 250 233 247 L233 109 C233 89 249 73 269 73 L322 73 C342 73 358 89 358 109 L358 247 C358 250 359 251 361 251 L505 251 C524 251 541 267 541 287 L541 314 C541 334 524 351 505 351 L361 351 C359 351 358 352 358 354 L358 493 C358 513 342 529 322 529 L269 529 C249 529 233 513 233 493 L233 354 C233 352 231 351 229 351 L86 351 C66 351 50 334 50 314 L50 287 L50 287 Z " />
<glyph glyph-name="comma" unicode="&#x2c;" horiz-adv-x="333" d="M100 -78 C95 -100 113 -121 135 -121 L171 -121 C186 -121 199 -112 204 -98 L248 17 C257 40 240 66 215 66 L158 66 C141 66 126 54 123 37 L100 -78 L100 -78 Z " />
<glyph glyph-name="hyphen" unicode="&#x2d;" horiz-adv-x="417" d="M50 286 C50 266 66 250 85 250 L331 250 C351 250 367 266 367 286 L367 313 C367 333 351 349 331 349 L85 349 C66 349 50 333 50 313 L50 286 L50 286 Z " />
<glyph glyph-name="period" unicode="&#x2e;" horiz-adv-x="355" d="M127 36 C127 16 143 0 162 0 L229 0 C249 0 265 16 265 36 L265 87 C265 107 249 123 229 123 L162 123 C143 123 127 107 127 87 L127 36 L127 36 Z " />
<glyph glyph-name="slash" unicode="&#x2f;" horiz-adv-x="613" d="M17 22 C-1 -1 17 -35 46 -35 L110 -35 C121 -35 132 -29 139 -20 L598 607 C615 631 598 664 568 664 L505 664 C493 664 483 659 476 650 L17 22 L17 22 Z " />
<glyph glyph-name="zero" unicode="0" horiz-adv-x="627" d="M35 314 C33 158 99 -8 313 -8 C489 -8 592 136 592 314 C592 471 500 636 313 636 C127 636 37 498 35 314 L35 314 Z M173 314 C173 397 205 513 313 513 C416 513 454 406 454 314 C454 227 422 117 313 115 C201 113 178 216 173 314 L173 314 Z " />
<glyph glyph-name="one" unicode="1" horiz-adv-x="318" d="M14 451 C14 422 47 404 71 421 L140 470 L140 36 C140 16 156 0 176 0 L242 0 C262 0 278 16 278 36 L278 590 C278 610 262 626 242 626 L171 626 C164 626 156 624 150 620 L29 533 C19 526 14 515 14 504 L14 451 L14 451 Z " />
<glyph glyph-name="two" unicode="2" horiz-adv-x="521" d="M19 36 C19 16 35 0 55 0 L457 0 C476 0 493 16 493 36 L493 87 C493 107 476 123 457 123 L228 123 C225 123 223 127 226 129 L412 306 C439 331 459 355 472 377 C485 400 491 427 491 457 C491 509 470 551 429 585 C387 618 333 635 267 635 C203 635 141 620 79 590 C66 584 58 572 58 558 L58 515 C58 489 83 472 107 481 C114 483 119 485 125 487 C141 493 162 499 189 504 C215 509 241 512 267 512 C299 512 321 507 334 496 C347 485 354 468 354 447 C354 434 350 422 344 412 C338 401 327 388 313 374 L31 107 C23 100 19 91 19 81 L19 36 L19 36 Z " />
<glyph glyph-name="three" unicode="3" horiz-adv-x="516" d="M22 65 C22 51 30 38 44 32 C74 19 103 10 129 3 C162 -4 200 -8 242 -8 C320 -8 382 10 429 46 C475 82 498 131 498 193 C498 219 492 245 478 269 C465 293 446 313 421 331 C419 332 419 335 421 337 C438 350 453 366 463 385 C475 405 481 427 481 450 C481 506 459 551 415 585 C370 619 313 636 242 636 C171 636 105 623 43 596 C30 590 22 577 22 563 L22 518 C22 493 46 476 69 483 C78 486 86 489 93 491 C110 496 133 501 160 506 C188 511 215 513 242 513 C309 513 342 492 342 449 C342 432 336 418 323 407 C311 396 291 390 264 390 L201 390 C181 390 165 374 165 355 L165 303 C165 284 181 267 201 267 L281 267 C309 267 328 261 341 247 C354 234 360 217 360 196 C360 142 321 115 242 115 C216 115 188 117 160 122 C133 127 110 132 93 137 C86 139 78 142 69 145 C45 152 22 135 22 111 L22 65 L22 65 Z " />
<glyph glyph-name="four" unicode="4" horiz-adv-x="556" d="M22 207 C22 187 38 171 58 171 L344 171 C346 171 348 169 348 167 L348 36 C348 16 364 0 384 0 L450 0 C470 0 486 16 486 36 L486 167 C486 169 488 171 490 171 L505 171 C524 171 540 187 540 207 L540 258 C540 278 524 294 505 294 L490 294 C488 294 486 295 486 297 L486 590 C486 610 470 626 450 626 L380 626 C370 626 361 622 354 615 L32 281 C26 274 22 265 22 256 L22 207 Z M209 294 C206 294 204 298 206 300 L342 440 C344 443 348 441 348 438 L348 297 C348 295 346 294 344 294 L209 294 Z " />
<glyph glyph-name="five" unicode="5" horiz-adv-x="551" d="M50 66 C50 52 59 39 71 34 C132 6 196 -8 262 -8 C303 -8 339 -2 372 11 C406 24 433 41 454 62 C476 84 492 109 504 136 C515 164 521 194 521 224 C521 292 501 348 461 390 C421 433 369 454 304 454 C283 454 262 451 240 444 C222 439 207 431 194 422 C192 420 189 421 189 425 L189 501 C189 503 190 504 192 504 L464 504 C484 504 500 521 500 540 L500 591 C500 611 484 627 464 627 L86 627 C66 627 50 611 50 591 L50 293 C50 273 66 257 86 257 L148 257 C161 257 173 264 180 275 C189 292 200 305 213 314 C229 326 250 332 276 332 C295 332 312 329 326 323 C340 317 352 308 359 298 C367 288 373 277 377 264 C381 252 383 239 383 224 C383 204 379 187 372 172 C366 158 356 146 344 138 C331 130 318 124 302 121 C287 117 270 115 251 115 C219 115 184 120 148 129 C130 134 113 138 98 144 C74 152 50 134 50 110 L50 66 L50 66 Z " />
<glyph glyph-name="six" unicode="6" horiz-adv-x="568" d="M50 197 C50 169 56 143 67 118 C79 93 95 71 115 53 C136 34 162 19 193 8 C225 -3 259 -8 296 -8 C334 -8 368 -3 400 8 C431 19 457 34 478 53 C498 72 514 95 526 120 C537 145 543 172 543 200 C543 229 537 256 527 281 C516 306 501 328 482 347 C463 366 439 381 410 392 C381 403 349 409 314 409 C271 409 231 397 194 374 C191 372 188 374 188 376 L188 428 C188 458 197 479 215 493 C232 506 263 513 309 513 C334 513 359 510 384 505 C409 499 430 493 446 487 C450 486 453 485 456 483 C480 474 506 491 506 517 L506 563 C506 577 498 590 485 596 C430 623 370 636 307 636 C271 636 238 632 209 624 C179 615 155 604 135 589 C116 575 100 558 87 537 C74 517 64 496 58 474 C53 452 50 428 50 403 L50 197 Z M214 262 C232 278 259 285 296 285 C333 285 360 278 378 262 C396 247 404 226 404 200 C404 174 396 153 378 138 C360 123 333 115 296 115 C259 115 232 123 214 138 C197 153 188 174 188 200 C188 226 197 247 214 262 L214 262 Z " />
<glyph glyph-name="seven" unicode="7" horiz-adv-x="527" d="M15 540 C15 520 31 504 51 504 L341 504 C344 504 345 501 344 498 L66 55 C51 31 68 0 97 0 L164 0 C177 0 188 6 195 17 L509 519 C513 525 515 532 515 538 L515 590 C515 610 499 626 479 626 L51 626 C31 626 15 610 15 590 L15 540 L15 540 Z " />
<glyph glyph-name="eight" unicode="8" horiz-adv-x="545" d="M20 188 C20 130 44 83 91 47 C138 10 198 -8 272 -8 C346 -8 407 10 454 47 C501 84 525 131 525 188 C525 216 519 242 506 267 C494 292 476 314 452 332 C486 365 503 405 503 453 C503 507 482 551 439 585 C396 619 341 636 272 636 C204 636 148 619 106 585 C63 550 42 506 42 453 C42 405 59 364 93 332 C69 314 51 292 39 267 C27 242 20 216 20 188 L20 188 Z M159 191 C159 214 168 233 187 246 C205 260 234 267 272 267 C311 267 339 260 358 246 C377 233 386 214 386 191 C386 169 376 151 356 136 C336 122 308 115 272 115 C234 115 205 121 187 135 C168 149 159 167 159 191 L159 191 Z M180 452 C180 493 211 513 272 513 C334 513 365 493 365 452 C365 410 334 390 272 390 C239 390 216 395 202 406 C187 416 180 432 180 452 L180 452 Z " />
<glyph glyph-name="nine" unicode="9" horiz-adv-x="559" d="M17 428 C17 374 37 321 77 281 C119 239 182 220 246 220 C289 220 328 231 365 255 C368 256 371 254 371 252 L371 200 C371 171 362 149 345 135 C327 122 296 115 250 115 C211 115 137 123 103 145 C79 154 54 137 54 111 L54 65 C54 51 62 38 74 32 C130 5 189 -8 252 -8 C309 -8 374 1 424 39 C483 82 508 151 509 225 L509 431 C509 483 487 538 444 575 C397 618 331 636 263 636 C202 636 133 622 81 575 C41 537 19 487 17 428 L17 428 Z M155 428 C155 488 206 513 263 513 C316 513 371 491 371 428 C371 368 320 343 263 343 C208 343 158 365 155 428 L155 428 Z " />
<glyph glyph-name="colon" unicode="&#x3a;" horiz-adv-x="310" d="M86 414 C86 394 103 378 123 378 L189 378 C209 378 225 394 225 414 L225 465 C225 485 209 501 189 501 L123 501 C103 501 86 485 86 465 L86 414 Z M86 84 C86 64 103 48 123 48 L189 48 C209 48 225 64 225 84 L225 135 C225 155 209 171 189 171 L123 171 C103 171 86 155 86 135 L86 84 Z " />
<glyph glyph-name="semicolon" unicode="&#x3b;" horiz-adv-x="297" d="M51 1 C46 -21 64 -42 86 -42 L122 -42 C137 -42 150 -33 155 -19 L199 96 C208 119 191 145 166 145 L109 145 C92 145 77 133 74 116 L51 1 Z M80 413 C80 393 96 377 116 377 L182 377 C202 377 218 393 218 413 L218 464 C218 484 202 500 182 500 L116 500 C96 500 80 484 80 464 L80 413 Z " />
<glyph glyph-name="less" unicode="&#x3c;" horiz-adv-x="552" d="M40 288 C40 273 49 260 64 254 L480 106 C504 98 528 115 528 140 L528 173 C528 188 519 202 504 207 L254 296 C251 297 251 302 254 303 L504 392 C519 396 528 410 528 425 L528 458 C528 483 504 500 480 492 L64 344 C49 339 40 325 40 310 L40 288 L40 288 Z " />
<glyph glyph-name="equal" unicode="&#x3d;" horiz-adv-x="564" d="M37 370 C37 351 53 335 73 335 L492 335 C511 335 528 351 528 370 L528 397 C528 417 511 433 492 433 L73 433 C53 433 37 417 37 397 L37 370 Z M37 204 C37 184 53 168 73 168 L492 168 C511 168 528 184 528 204 L528 230 C528 250 511 266 492 266 L73 266 C53 266 37 250 37 230 L37 204 Z " />
<glyph glyph-name="greater" unicode="&#x3e;" horiz-adv-x="552" d="M23 141 C23 116 48 99 71 107 L488 255 C502 261 512 274 512 289 L512 311 C512 326 502 340 488 345 L71 493 C48 501 23 484 23 459 L23 427 C23 412 33 398 47 393 L298 304 C301 302 301 298 298 297 L47 208 C33 203 23 189 23 174 L23 141 L23 141 Z " />
<glyph glyph-name="question" unicode="&#x3f;" horiz-adv-x="486" d="M19 513 C19 488 43 471 67 478 C134 501 191 512 238 512 C298 512 328 490 328 447 C328 435 324 424 317 414 C309 403 300 393 288 385 C276 376 262 367 248 358 C233 348 219 338 204 326 C189 314 176 302 164 288 C152 275 142 258 135 238 C133 232 130 224 129 217 C124 195 141 173 164 173 L232 173 C247 173 261 183 266 198 C268 203 270 208 274 214 C281 225 291 236 303 244 C315 253 328 261 343 269 C357 277 372 287 387 297 C401 307 414 319 426 331 C438 344 448 360 455 380 C463 399 467 422 467 447 C467 501 447 547 407 582 C367 618 315 635 250 635 C209 635 171 631 135 622 C107 616 76 606 43 594 C29 588 19 575 19 560 L19 513 Z M123 36 C123 16 140 0 159 0 L226 0 C246 0 262 16 262 36 L262 87 C262 107 246 123 226 123 L159 123 C140 123 123 107 123 87 L123 36 Z " />
<glyph glyph-name="at" unicode="&#x40;" horiz-adv-x="904" d="M42 207 C42 106 74 26 136 -33 C199 -92 284 -121 393 -121 C455 -121 511 -114 561 -99 C577 -95 587 -80 587 -65 L587 -62 C587 -38 565 -21 542 -27 C496 -39 450 -45 403 -45 C346 -45 296 -34 254 -12 C212 10 181 41 160 79 C140 117 129 161 129 211 C129 268 139 321 159 372 C180 422 207 465 241 501 C275 537 316 565 363 586 C410 607 461 618 513 618 C596 618 660 597 706 556 C752 515 775 461 775 395 C775 356 771 320 763 286 C754 253 744 225 730 203 C717 182 702 165 686 152 C670 140 654 134 638 134 C624 134 614 139 607 147 C600 156 597 171 597 192 C597 205 598 218 600 231 L635 450 C638 471 621 491 599 491 L584 491 C570 491 557 481 553 467 L553 467 C553 465 550 464 549 466 L549 466 C546 468 542 471 536 475 C531 478 524 482 517 485 C510 489 500 492 489 494 C478 497 467 498 455 498 C423 498 394 491 368 478 C343 465 321 447 304 423 C288 400 275 373 266 341 C257 309 252 275 252 238 C252 191 264 154 289 126 C313 98 348 84 394 84 C410 84 427 86 442 90 C458 93 471 97 481 102 C490 106 500 112 508 118 C517 123 522 128 525 130 C526 131 527 131 527 132 C529 134 531 133 532 131 C537 111 548 94 563 80 C579 65 601 58 629 58 C676 58 717 73 753 104 C789 134 816 175 834 226 C853 278 862 334 862 397 C862 438 855 476 839 512 C824 548 802 579 774 607 C745 633 708 655 664 671 C620 686 570 694 515 694 C449 694 387 682 328 657 C270 632 220 598 178 555 C136 513 103 461 79 401 C54 340 42 276 42 207 L42 207 Z M339 239 C339 294 349 338 368 372 C388 406 417 423 456 423 C468 423 478 421 488 419 C498 416 506 413 511 410 C517 407 522 403 527 399 C531 395 534 392 535 390 C536 389 537 388 537 388 C538 387 538 386 538 385 L509 200 C509 200 508 199 508 199 C487 174 454 161 411 161 C386 161 368 167 356 180 C345 193 339 213 339 239 L339 239 Z " />
<glyph glyph-name="A" unicode="A" horiz-adv-x="619" d="M19 49 C10 25 28 0 53 0 L118 0 C133 0 146 9 151 24 L195 142 C195 144 196 145 198 145 L421 145 C423 145 424 144 424 142 L468 24 C473 9 486 0 502 0 L566 0 C591 0 609 25 600 49 L389 603 C384 617 371 627 356 627 L263 627 C248 627 235 617 230 603 L19 49 Z M246 267 C243 267 241 270 242 272 L306 448 C307 451 312 451 313 448 L377 272 C378 270 376 267 374 267 L246 267 Z " />
<glyph glyph-name="B" unicode="B" horiz-adv-x="612" d="M40 36 C40 16 56 0 76 0 L390 0 C448 0 497 18 538 54 C579 90 600 135 600 188 C600 217 593 246 579 273 C565 300 544 324 517 343 C543 370 556 406 556 449 C556 500 536 543 496 576 C457 610 410 627 354 627 L76 627 C56 627 40 610 40 591 L40 36 Z M179 393 L179 500 C179 502 180 503 182 503 L355 503 C373 503 388 498 399 487 C411 476 417 463 417 447 C417 431 411 417 400 406 C388 395 373 389 355 389 L182 389 C180 389 179 391 179 393 L179 393 Z M179 126 L179 263 C179 265 180 266 182 266 L390 266 C410 266 427 259 441 244 C454 230 461 212 461 191 C461 172 454 155 441 142 C427 129 410 122 390 122 L182 122 C180 122 179 124 179 126 L179 126 Z " />
<glyph glyph-name="C" unicode="C" horiz-adv-x="638" d="M40 314 C40 231 69 150 129 88 C198 19 303 -8 402 -8 C468 -8 531 1 590 18 C605 22 616 37 616 53 L616 99 C616 122 594 139 572 134 C517 121 461 115 403 115 C344 115 275 126 229 172 C194 209 178 260 178 314 C178 365 192 417 229 456 C271 500 339 513 403 513 C461 513 517 507 572 495 C594 489 616 506 616 530 L616 576 C616 592 605 606 590 610 C531 628 468 636 402 636 C305 636 203 612 129 541 C71 481 40 400 40 314 L40 314 Z " />
<glyph glyph-name="D" unicode="D" horiz-adv-x="692" d="M40 36 C40 16 56 0 76 0 L324 0 C373 0 418 8 459 24 C501 39 536 61 565 89 C594 116 616 149 632 188 C649 227 657 268 657 313 C657 372 643 426 615 473 C588 521 549 558 498 586 C447 613 389 627 324 627 L76 627 C56 627 40 610 40 591 L40 36 Z M178 127 L178 500 C178 502 180 503 182 503 L324 503 C385 503 432 486 467 451 C501 415 518 369 518 313 C518 256 501 210 466 175 C432 140 384 123 324 123 L182 123 C180 123 178 125 178 127 L178 127 Z " />
<glyph glyph-name="E" unicode="E" horiz-adv-x="586" d="M40 36 C40 16 56 0 76 0 L523 0 C542 0 558 16 558 36 L558 87 C558 107 542 123 523 123 L182 123 C180 123 178 125 178 127 L178 261 C178 263 180 265 182 265 L470 265 C490 265 506 281 506 301 L506 352 C506 372 490 388 470 388 L182 388 C180 388 178 390 178 392 L178 500 C178 502 180 503 182 503 L523 503 C542 503 558 520 558 539 L558 591 C558 610 542 627 523 627 L76 627 C56 627 40 610 40 591 L40 36 L40 36 Z " />
<glyph glyph-name="F" unicode="F" horiz-adv-x="498" d="M40 36 C40 16 56 0 76 0 L143 0 C163 0 179 16 179 36 L179 261 C179 263 180 265 182 265 L402 265 C422 265 438 281 438 301 L438 352 C438 372 422 388 402 388 L182 388 C180 388 179 390 179 392 L179 500 C179 502 180 503 182 503 L455 503 C475 503 491 520 491 539 L491 591 C491 610 475 627 455 627 L76 627 C56 627 40 610 40 591 L40 36 L40 36 Z " />
<glyph glyph-name="G" unicode="G" horiz-adv-x="651" d="M58 190 C73 151 95 118 124 88 C154 58 192 35 238 18 C285 1 338 -8 396 -8 C464 -8 526 1 585 18 C600 22 611 37 611 53 L611 315 C611 335 595 351 575 351 L508 351 C488 351 473 335 473 315 L473 122 C473 120 471 119 469 119 C445 116 421 115 398 115 C358 115 323 120 294 130 C265 140 241 154 224 172 C207 190 194 211 186 235 C177 258 173 285 173 314 C173 344 177 370 186 394 C194 417 207 438 224 456 C241 475 265 489 294 498 C323 508 358 513 398 513 C456 513 512 507 567 495 C589 489 611 506 611 530 L611 576 C611 592 600 606 585 610 C526 628 464 636 396 636 C338 636 285 628 238 611 C192 594 154 570 124 541 C95 511 73 477 58 438 C42 400 35 358 35 314 C35 270 42 229 58 190 L58 190 Z " />
<glyph glyph-name="H" unicode="H" horiz-adv-x="624" d="M40 36 C40 16 56 0 76 0 L142 0 C163 0 178 16 178 36 L178 261 C178 263 180 265 182 265 L442 265 C444 265 446 263 446 261 L446 36 C446 16 462 0 482 0 L548 0 C568 0 584 16 584 36 L584 591 C584 610 568 627 548 627 L482 627 C462 627 446 610 446 591 L446 392 C446 390 444 388 442 388 L182 388 C180 388 178 390 178 392 L178 591 C178 610 163 627 142 627 L76 627 C56 627 40 610 40 591 L40 36 L40 36 Z " />
<glyph glyph-name="I" unicode="I" horiz-adv-x="218" d="M40 36 C40 16 56 0 76 0 L142 0 C162 0 178 16 178 36 L178 591 C178 610 162 627 142 627 L76 627 C56 627 40 610 40 591 L40 36 L40 36 Z " />
<glyph glyph-name="J" unicode="J" horiz-adv-x="318" d="M14 35 C14 18 26 3 42 0 C64 -5 84 -8 103 -8 C132 -8 158 -3 181 5 C204 14 222 25 236 40 C250 55 260 71 267 90 C274 108 278 127 278 148 L278 591 C278 610 262 627 242 627 L176 627 C156 627 140 610 140 591 L140 156 C140 140 137 129 132 124 C127 118 115 115 97 115 C87 115 74 117 57 120 C35 125 14 108 14 85 L14 35 L14 35 Z " />
<glyph glyph-name="K" unicode="K" horiz-adv-x="585" d="M40 36 C40 16 56 0 76 0 L143 0 C163 0 179 16 179 36 L179 177 C179 178 179 179 180 180 L251 254 C252 256 255 256 256 254 L441 14 C447 5 458 0 469 0 L540 0 C570 0 587 35 568 58 L340 344 C339 345 339 347 340 348 L547 566 C569 589 552 627 521 627 L458 627 C448 627 439 622 432 615 L185 350 C182 347 178 349 178 352 L178 591 C178 610 162 627 142 627 L76 627 C56 627 40 610 40 591 L40 36 L40 36 Z " />
<glyph glyph-name="L" unicode="L" horiz-adv-x="573" d="M40 36 C40 16 56 0 76 0 L522 0 C542 0 558 16 558 36 L558 87 C558 107 542 123 522 123 L182 123 C180 123 178 125 178 127 L178 591 C178 610 162 627 142 627 L76 627 C56 627 40 610 40 591 L40 36 L40 36 Z " />
<glyph glyph-name="M" unicode="M" horiz-adv-x="716" d="M40 36 C40 16 56 0 76 0 L143 0 C163 0 179 16 179 36 L179 378 C179 381 183 383 185 380 L294 214 C300 204 312 198 324 198 L392 198 C404 198 415 204 422 214 L531 380 C533 383 537 381 537 378 L537 36 C537 16 553 0 573 0 L640 0 C660 0 676 16 676 36 L676 591 C676 610 660 627 640 627 L557 627 C545 627 533 620 527 610 L361 357 C359 355 356 355 355 357 L189 610 C183 620 171 627 159 627 L76 627 C56 627 40 610 40 591 L40 36 L40 36 Z " />
<glyph glyph-name="N" unicode="N" horiz-adv-x="625" d="M40 36 C40 16 56 0 76 0 L142 0 C162 0 178 16 178 36 L178 387 C178 391 183 392 185 389 L436 16 C443 6 454 0 466 0 L549 0 C569 0 585 16 585 36 L585 591 C585 610 569 627 549 627 L483 627 C463 627 447 610 447 591 L447 240 C447 237 442 235 440 238 L189 611 C182 621 171 627 159 627 L76 627 C56 627 40 610 40 591 L40 36 L40 36 Z " />
<glyph glyph-name="O" unicode="O" horiz-adv-x="736" d="M58 187 C74 148 96 113 125 85 C154 56 189 33 231 17 C273 0 318 -8 368 -8 C417 -8 463 0 505 17 C547 33 582 56 611 85 C639 113 661 148 677 187 C693 226 701 269 701 314 C701 359 693 401 677 441 C661 480 639 514 611 543 C583 572 547 595 505 611 C464 628 418 636 368 636 C318 636 272 628 230 611 C189 595 153 572 125 543 C96 514 74 480 58 441 C43 401 35 359 35 314 C35 269 43 226 58 187 L58 187 Z M173 314 C173 373 190 421 224 458 C258 495 306 513 368 513 C429 513 477 495 511 458 C546 421 562 373 562 314 C562 255 546 207 511 170 C477 133 429 115 368 115 C307 115 259 133 224 170 C190 207 173 255 173 314 L173 314 Z " />
<glyph glyph-name="P" unicode="P" horiz-adv-x="582" d="M40 36 C40 16 56 0 76 0 L142 0 C162 0 178 16 178 36 L178 238 C178 240 180 242 182 242 L354 242 C412 242 460 261 500 298 C540 335 560 380 560 434 C560 488 540 534 501 571 C462 608 413 627 354 627 L76 627 C56 627 40 610 40 591 L40 36 Z M178 369 L178 500 C178 502 180 503 182 503 L354 503 C374 503 389 497 402 484 C415 471 421 454 421 434 C421 415 415 398 402 385 C389 372 374 365 354 365 L182 365 C180 365 178 367 178 369 L178 369 Z " />
<glyph glyph-name="Q" unicode="Q" horiz-adv-x="736" d="M58 187 C74 148 96 113 125 85 C153 56 188 33 230 17 C272 0 318 -8 368 -8 C397 -8 425 -5 453 2 C454 2 455 2 455 1 L604 -83 C621 -93 643 -87 652 -70 L679 -24 C689 -6 683 16 665 26 L593 65 C590 66 590 69 592 71 C628 101 655 138 673 180 C691 223 701 268 701 314 C701 359 693 401 677 441 C661 480 639 514 611 543 C582 572 547 595 505 611 C463 628 417 636 368 636 C318 636 272 628 230 612 C188 595 153 572 125 543 C96 514 74 480 58 441 C43 401 35 359 35 314 C35 269 43 226 58 187 L58 187 Z M173 314 C173 373 190 421 224 458 C258 495 306 513 368 513 C429 513 477 495 511 458 C545 421 562 373 562 314 C562 255 545 207 511 170 C477 133 429 115 368 115 C306 115 259 133 224 170 C190 207 173 255 173 314 L173 314 Z " />
<glyph glyph-name="R" unicode="R" horiz-adv-x="587" d="M40 36 C40 16 56 0 76 0 L142 0 C162 0 178 16 178 36 L178 251 C178 253 180 255 181 255 L244 255 C245 255 246 254 247 253 L428 14 C435 5 446 0 457 0 L528 0 C558 0 575 34 557 58 L408 249 C407 251 408 254 410 254 C440 262 466 275 489 293 C513 312 531 334 542 359 C554 383 559 408 559 435 C559 488 540 533 500 571 C461 608 412 627 354 627 L76 627 C56 627 40 610 40 591 L40 36 Z M178 369 L178 500 C178 502 180 503 181 503 L354 503 C373 503 389 497 402 484 C415 471 421 454 421 434 C421 415 415 398 402 385 C389 372 373 365 354 365 L181 365 C180 365 178 367 178 369 L178 369 Z " />
<glyph glyph-name="S" unicode="S" horiz-adv-x="555" d="M32 456 C32 393 67 335 127 305 C191 275 315 266 370 237 C391 226 402 209 402 184 C402 151 379 130 347 122 C290 108 222 114 160 126 C136 131 108 138 78 146 C55 153 32 136 32 112 L32 66 C32 51 41 37 55 32 C127 7 201 -8 285 -8 C406 -8 540 38 540 185 C540 238 520 290 472 327 C392 388 287 371 198 413 C179 422 170 436 170 456 C170 506 229 513 273 513 C317 513 356 511 389 506 C410 503 433 499 458 493 C480 488 501 505 501 528 L501 575 C501 591 491 605 476 609 C447 618 420 624 393 628 C358 634 318 636 273 636 C154 636 41 592 32 456 L32 456 Z " />
<glyph glyph-name="T" unicode="T" horiz-adv-x="568" d="M13 539 C13 520 29 503 49 503 L212 503 C214 503 215 502 215 500 L215 36 C215 16 231 0 251 0 L318 0 C338 0 353 16 353 36 L353 500 C353 502 355 503 357 503 L520 503 C540 503 556 520 556 539 L556 591 C556 610 540 627 520 627 L49 627 C29 627 13 610 13 591 L13 539 L13 539 Z " />
<glyph glyph-name="U" unicode="U" horiz-adv-x="682" d="M40 237 C40 203 48 172 62 142 C76 112 96 86 122 64 C148 42 179 24 217 11 C255 -1 296 -8 341 -8 C385 -8 426 -1 464 11 C502 24 534 42 559 64 C585 86 605 112 620 142 C634 172 642 203 642 237 L642 591 C642 610 625 627 606 627 L539 627 C519 627 503 610 503 591 L503 242 C503 209 488 180 458 154 C427 128 388 115 341 115 C293 115 255 128 224 154 C194 180 179 209 179 242 L179 591 C179 610 163 627 143 627 L76 627 C57 627 40 610 40 591 L40 237 L40 237 Z " />
<glyph glyph-name="V" unicode="V" horiz-adv-x="600" d="M44 627 C18 627 1 601 10 578 L220 23 C226 9 239 0 254 0 L346 0 C361 0 375 9 380 23 L591 578 C599 601 582 627 557 627 L492 627 C477 627 464 617 458 603 L303 179 C302 176 298 176 297 179 L142 603 C137 617 124 627 108 627 L44 627 L44 627 Z " />
<glyph glyph-name="W" unicode="W" horiz-adv-x="867" d="M43 627 C19 627 2 604 9 581 L168 26 C173 10 187 0 203 0 L314 0 C331 0 345 11 349 27 L430 359 C431 363 436 363 437 359 L517 27 C521 11 536 0 552 0 L664 0 C681 0 695 11 699 26 L857 581 C864 604 847 627 823 627 L758 627 C742 627 727 615 723 600 L613 182 C612 178 607 178 606 182 L505 599 C501 615 486 627 470 627 L398 627 C381 627 367 615 363 599 L261 181 C260 177 255 177 254 181 L143 600 C139 615 124 627 108 627 L43 627 L43 627 Z " />
<glyph glyph-name="X" unicode="X" horiz-adv-x="613" d="M27 58 C9 34 26 0 56 0 L126 0 C138 0 148 5 155 14 L304 214 C305 216 308 216 310 214 L459 14 C465 5 476 0 488 0 L558 0 C588 0 605 34 586 58 L389 311 C388 312 388 314 389 316 L586 568 C605 592 588 627 558 627 L488 627 C476 627 465 621 459 612 L310 412 C308 411 305 411 304 412 L155 612 C148 621 138 627 126 627 L56 627 C26 627 9 592 27 568 L224 316 C225 314 225 312 224 311 L27 58 L27 58 Z " />
<glyph glyph-name="Y" unicode="Y" horiz-adv-x="574" d="M43 627 C13 627 -4 593 14 570 L217 297 C218 296 218 295 218 294 L218 36 C218 16 234 0 254 0 L321 0 C340 0 357 16 357 36 L357 294 C357 295 357 296 357 297 L561 570 C579 593 561 627 532 627 L463 627 C452 627 441 622 434 612 L290 414 C289 412 286 412 285 414 L141 612 C134 622 123 627 112 627 L43 627 L43 627 Z " />
<glyph glyph-name="Z" unicode="Z" horiz-adv-x="561" d="M17 36 C17 16 33 0 53 0 L500 0 C520 0 536 16 536 36 L536 87 C536 107 520 123 500 123 L202 123 C199 123 197 126 199 129 L529 512 C534 519 538 527 538 536 L538 591 C538 610 521 627 502 627 L53 627 C33 627 17 610 17 591 L17 539 C17 520 33 503 53 503 L353 503 C356 503 357 500 355 498 L26 114 C20 108 17 99 17 91 L17 36 L17 36 Z " />
<glyph glyph-name="bracketleft" unicode="&#x5b;" horiz-adv-x="309" d="M40 -151 C40 -171 56 -187 76 -187 L244 -187 C264 -187 280 -171 280 -151 L280 -100 C280 -81 264 -64 244 -64 L182 -64 C180 -64 179 -63 179 -61 L179 625 C179 627 180 628 182 628 L244 628 C264 628 280 644 280 664 L280 715 C280 735 264 751 244 751 L76 751 C56 751 40 735 40 715 L40 -151 L40 -151 Z " />
<glyph glyph-name="backslash" unicode="&#x5c;" horiz-adv-x="617" d="M45 663 C15 663 -2 630 16 606 L474 -21 C481 -30 492 -36 504 -36 L567 -36 C597 -36 614 -2 596 21 L137 649 C131 658 120 663 109 663 L45 663 L45 663 Z " />
<glyph glyph-name="bracketright" unicode="&#x5d;" horiz-adv-x="308" d="M64 -65 C44 -65 28 -82 28 -101 L28 -152 C28 -172 44 -188 64 -188 L232 -188 C252 -188 268 -172 268 -152 L268 714 C268 734 252 750 232 750 L64 750 C44 750 28 734 28 714 L28 663 C28 643 44 627 64 627 L126 627 C128 627 130 626 130 624 L130 -62 C130 -64 128 -65 126 -65 L64 -65 L64 -65 Z " />
<glyph glyph-name="asciicircum" unicode="&#x5e;" horiz-adv-x="376" d="M40 365 C30 341 48 316 73 316 L100 316 C115 316 128 325 134 338 L185 465 C186 468 190 468 191 465 L243 338 C249 325 262 316 276 316 L304 316 C329 316 347 341 337 365 L237 615 C232 628 218 637 204 637 L173 637 C158 637 145 628 140 615 L40 365 L40 365 Z " />
<glyph glyph-name="underscore" unicode="&#x5f;" horiz-adv-x="584" d="M83 85 C63 85 47 69 47 49 L47 36 C47 16 63 0 83 0 L500 0 C520 0 536 16 536 36 L536 49 C536 69 520 85 500 85 L83 85 L83 85 Z " />
<glyph glyph-name="grave" unicode="&#x60;" horiz-adv-x="302" d="M102 627 C84 627 74 608 84 594 L148 498 C152 493 158 489 166 489 L197 489 C213 489 223 506 216 521 L166 616 C162 623 155 627 147 627 L102 627 L102 627 Z " />
<glyph glyph-name="a" unicode="a" horiz-adv-x="639" d="M604 316 C604 572 508 646 242 635 C198 633 129 625 79 610 C63 606 53 592 53 576 L53 528 C53 505 75 488 98 493 C137 501 198 512 241 513 C281 515 455 528 455 390 C329 418 180 401 110 351 C44 304 21 236 26 152 C30 79 79 -8 243 -8 C373 -8 444 39 462 50 L462 45 C462 11 478 0 498 0 L568 0 C588 0 604 16 604 36 L604 314 C604 315 604 315 604 316 L604 316 Z M231 115 C149 117 164 197 164 197 C166 264 289 310 453 269 L453 268 C453 223 443 110 231 115 L231 115 Z " />
<glyph glyph-name="b" unicode="b" horiz-adv-x="612" d="M40 36 L40 36 C40 16 56 0 76 0 L390 0 C448 0 497 18 538 54 C579 90 600 135 600 188 C600 217 593 246 579 273 C565 300 544 324 517 343 C543 370 556 406 556 449 C556 500 536 543 496 576 C457 610 410 627 354 627 L76 627 C56 627 40 610 40 591 L40 36 Z M179 393 L179 500 C179 502 180 503 182 503 L355 503 C373 503 388 498 399 487 C411 476 417 463 417 447 C417 431 411 417 400 406 C388 395 373 389 355 389 L182 389 C180 389 179 391 179 393 L179 393 Z M179 126 L179 263 C179 265 180 266 182 266 L390 266 C410 266 427 259 441 244 C454 230 461 212 461 191 C461 172 454 155 441 142 C427 129 410 122 390 122 L182 122 C180 122 179 124 179 126 L179 126 Z " />
<glyph glyph-name="c" unicode="c" horiz-adv-x="638" d="M40 314 C40 231 69 150 129 88 C198 19 303 -8 402 -8 C468 -8 531 1 590 18 C605 22 616 37 616 53 L616 99 C616 122 594 139 572 134 C517 121 461 115 403 115 C344 115 275 126 229 172 C194 209 178 260 178 314 C178 365 192 417 229 456 C271 500 339 513 403 513 C461 513 517 507 572 495 C594 489 616 506 616 530 L616 576 C616 592 605 606 590 610 C531 628 468 636 402 636 C305 636 203 612 129 541 C71 481 40 400 40 314 L40 314 Z " />
<glyph glyph-name="d" unicode="d" horiz-adv-x="692" d="M40 36 L40 36 C40 16 56 0 76 0 L324 0 C373 0 418 8 459 24 C501 39 536 61 565 89 C594 116 616 149 632 188 C649 227 657 268 657 313 C657 372 643 426 615 473 C588 521 549 558 498 586 C447 613 389 627 324 627 L76 627 C56 627 40 610 40 591 L40 36 Z M178 127 L178 500 C178 502 180 503 182 503 L324 503 C385 503 432 486 467 451 C501 415 518 369 518 313 C518 256 501 210 466 175 C432 140 384 123 324 123 L182 123 C180 123 178 125 178 127 L178 127 Z " />
<glyph glyph-name="e" unicode="e" horiz-adv-x="644" d="M566 134 C511 121 454 116 397 115 C311 114 195 157 175 261 C475 252 625 295 625 432 C625 550 515 636 379 636 C148 636 72 477 56 438 C41 400 34 359 34 314 C34 172 119 62 237 18 C284 1 337 -8 395 -8 C463 -8 525 1 584 18 C599 23 610 37 610 53 L610 99 C610 122 588 139 566 134 L566 134 Z M300 501 C419 540 499 485 499 446 C499 402 411 379 181 379 C185 403 217 474 300 501 L300 501 Z " />
<glyph glyph-name="f" unicode="f" horiz-adv-x="498" d="M40 36 C40 16 56 0 76 0 L143 0 C163 0 179 16 179 36 L179 261 C179 263 180 265 182 265 L402 265 C422 265 438 281 438 301 L438 352 C438 372 422 388 402 388 L182 388 C180 388 179 390 179 392 L179 500 C179 502 180 503 182 503 L455 503 C475 503 491 520 491 539 L491 591 C491 610 475 627 455 627 L76 627 C56 627 40 610 40 591 L40 36 L40 36 Z " />
<glyph glyph-name="g" unicode="g" horiz-adv-x="646" d="M58 190 C73 151 95 118 124 88 C154 58 192 35 238 18 C285 1 338 -8 396 -8 C464 -8 526 1 585 18 C600 22 611 37 611 53 L611 315 C611 335 595 351 575 351 L508 351 C488 351 473 335 473 315 L473 122 C473 120 471 119 469 119 C445 116 421 115 398 115 C358 115 323 120 294 130 C265 140 241 154 224 172 C207 190 194 211 186 235 C177 258 173 285 173 314 C173 344 177 370 186 394 C194 417 207 438 224 456 C241 475 265 489 294 498 C323 508 358 513 398 513 C456 513 512 507 567 495 C589 489 611 506 611 530 L611 576 C611 592 600 606 585 610 C526 628 464 636 396 636 C338 636 285 628 238 611 C192 594 154 570 124 541 C95 511 73 477 58 438 C42 400 35 358 35 314 C35 270 42 229 58 190 L58 190 Z " />
<glyph glyph-name="h" unicode="h" horiz-adv-x="624" d="M40 36 C40 16 56 0 76 0 L142 0 C163 0 178 16 178 36 L178 261 C178 263 180 265 182 265 L442 265 C444 265 446 263 446 261 L446 36 C446 16 462 0 482 0 L548 0 C568 0 584 16 584 36 L584 591 C584 610 568 627 548 627 L482 627 C462 627 446 610 446 591 L446 392 C446 390 444 388 442 388 L182 388 C180 388 178 390 178 392 L178 591 C178 610 163 627 142 627 L76 627 C56 627 40 610 40 591 L40 36 L40 36 Z " />
<glyph glyph-name="i" unicode="i" horiz-adv-x="218" d="M40 36 C40 16 56 0 76 0 L142 0 C162 0 178 16 178 36 L178 591 C178 610 162 627 142 627 L76 627 C56 627 40 610 40 591 L40 36 L40 36 Z " />
<glyph glyph-name="j" unicode="j" horiz-adv-x="318" d="M242 627 L113 627 C93 627 77 611 77 591 L77 524 C77 507 91 494 108 494 L135 494 C137 494 139 492 139 490 L139 156 C139 140 137 129 132 124 C126 118 115 115 97 115 C87 115 73 117 57 120 C35 125 14 108 14 85 L14 35 C14 18 26 3 42 0 C63 -6 84 -8 103 -8 C153 -8 204 6 236 40 C264 70 278 110 278 148 L278 591 C277 612 261 627 242 627 L242 627 Z " />
<glyph glyph-name="k" unicode="k" horiz-adv-x="585" d="M40 36 C40 16 56 0 76 0 L143 0 C163 0 179 16 179 36 L179 177 C179 178 179 179 180 180 L251 254 C252 256 255 256 256 254 L441 14 C447 5 458 0 469 0 L540 0 C570 0 587 35 568 58 L340 344 C339 345 339 347 340 348 L547 566 C569 589 552 627 521 627 L458 627 C448 627 439 622 432 615 L185 350 C182 347 178 349 178 352 L178 591 C178 610 162 627 142 627 L76 627 C56 627 40 610 40 591 L40 36 L40 36 Z " />
<glyph glyph-name="l" unicode="l" horiz-adv-x="573" d="M40 36 C40 16 56 0 76 0 L522 0 C542 0 558 16 558 36 L558 87 C558 107 542 123 522 123 L182 123 C180 123 178 125 178 127 L178 591 C178 610 162 627 142 627 L76 627 C56 627 40 610 40 591 L40 36 L40 36 Z " />
<glyph glyph-name="m" unicode="m" horiz-adv-x="791" d="M40 36 C40 16 56 0 76 0 L142 0 C162 0 178 16 178 36 L178 424 C178 449 184 470 196 487 C208 503 227 512 253 512 C279 512 299 503 311 487 C322 470 328 449 328 424 L328 36 C328 16 345 0 364 0 L431 0 C451 0 467 16 467 36 L467 424 C467 449 473 470 485 487 C497 503 516 512 543 512 C569 512 588 503 600 487 C612 470 618 449 618 424 L618 36 C618 16 634 0 654 0 L720 0 C740 0 756 16 756 36 L756 433 C756 488 738 548 693 590 C657 623 604 636 552 636 C499 636 453 617 413 580 C412 579 410 579 408 580 C394 597 377 611 357 621 C336 631 313 636 289 636 C245 636 206 620 172 590 C170 589 167 590 166 593 L166 594 C164 612 149 627 130 627 L76 627 C56 627 40 610 40 591 L40 36 L40 36 Z " />
<glyph glyph-name="n" unicode="n" horiz-adv-x="546" d="M40 36 C40 16 56 0 76 0 L142 0 C162 0 178 16 178 36 L178 428 C178 454 186 474 202 489 C217 504 242 512 276 512 C310 512 334 504 350 489 C365 474 373 454 373 428 L373 36 C373 16 389 0 409 0 L475 0 C495 0 511 16 511 36 L511 428 C511 490 493 541 457 579 C422 617 374 636 313 636 C257 636 210 619 173 587 C171 585 168 587 167 590 L167 594 C165 612 150 627 131 627 L76 627 C56 627 40 610 40 591 L40 36 L40 36 Z " />
<glyph glyph-name="o" unicode="o" horiz-adv-x="736" d="M58 187 L58 187 C74 148 96 113 125 85 C154 56 189 33 231 17 C273 0 318 -8 368 -8 C417 -8 463 0 505 17 C547 33 582 56 611 85 C639 113 661 148 677 187 C693 226 701 269 701 314 C701 359 693 401 677 441 C661 480 639 514 611 543 C583 572 547 595 505 611 C464 628 418 636 368 636 C318 636 272 628 230 611 C189 595 153 572 125 543 C96 514 74 480 58 441 C43 401 35 359 35 314 C35 269 43 226 58 187 L58 187 Z M173 314 C173 373 190 421 224 458 C258 495 306 513 368 513 C429 513 477 495 511 458 C546 421 562 373 562 314 C562 255 546 207 511 170 C477 133 429 115 368 115 C307 115 259 133 224 170 C190 207 173 255 173 314 L173 314 Z " />
<glyph glyph-name="p" unicode="p" horiz-adv-x="572" d="M40 36 L40 36 C40 16 56 0 76 0 L142 0 C162 0 178 16 178 36 L178 238 C178 240 180 242 182 242 L354 242 C412 242 460 261 500 298 C540 335 560 380 560 434 C560 488 540 534 501 571 C462 608 413 627 354 627 L76 627 C56 627 40 610 40 591 L40 36 Z M178 369 L178 500 C178 502 180 503 182 503 L354 503 C374 503 389 497 402 484 C415 471 421 454 421 434 C421 415 415 398 402 385 C389 372 374 365 354 365 L182 365 C180 365 178 367 178 369 L178 369 Z " />
<glyph glyph-name="q" unicode="q" horiz-adv-x="736" d="M58 187 L58 187 C74 148 96 113 125 85 C153 56 188 33 230 17 C272 0 318 -8 368 -8 C397 -8 425 -5 453 2 C454 2 455 2 455 1 L604 -83 C621 -93 643 -87 652 -70 L679 -24 C689 -6 683 16 665 26 L593 65 C590 66 590 69 592 71 C628 101 655 138 673 180 C691 223 701 268 701 314 C701 359 693 401 677 441 C661 480 639 514 611 543 C582 572 547 595 505 611 C463 628 417 636 368 636 C318 636 272 628 230 612 C188 595 153 572 125 543 C96 514 74 480 58 441 C43 401 35 359 35 314 C35 269 43 226 58 187 L58 187 Z M173 314 C173 373 190 421 224 458 C258 495 306 513 368 513 C429 513 477 495 511 458 C545 421 562 373 562 314 C562 255 545 207 511 170 C477 133 429 115 368 115 C306 115 259 133 224 170 C190 207 173 255 173 314 L173 314 Z " />
<glyph glyph-name="r" unicode="r" horiz-adv-x="459" d="M40 36 C40 16 57 0 76 0 L143 0 C163 0 179 16 179 36 L179 476 C179 478 180 479 181 480 C204 490 302 526 404 504 C427 499 448 517 448 539 L448 589 C448 606 435 622 419 626 C279 655 211 613 174 588 C172 587 169 588 169 591 L168 595 C166 613 150 626 132 626 L76 626 C57 626 40 610 40 590 L40 36 L40 36 Z " />
<glyph glyph-name="s" unicode="s" horiz-adv-x="550" d="M32 456 C32 393 67 335 127 305 C191 275 315 266 370 237 C391 226 402 209 402 184 C402 151 379 130 347 122 C290 108 222 114 160 126 C136 131 108 138 78 146 C55 153 32 136 32 112 L32 66 C32 51 41 37 55 32 C127 7 201 -8 285 -8 C406 -8 540 38 540 185 C540 238 520 290 472 327 C392 388 287 371 198 413 C179 422 170 436 170 456 C170 506 229 513 273 513 C317 513 356 511 389 506 C410 503 433 499 458 493 C480 488 501 505 501 528 L501 575 C501 591 491 605 476 609 C447 618 420 624 393 628 C358 634 318 636 273 636 C154 636 41 592 32 456 L32 456 Z " />
<glyph glyph-name="t" unicode="t" horiz-adv-x="568" d="M13 539 C13 520 29 503 49 503 L212 503 C214 503 215 502 215 500 L215 36 C215 16 231 0 251 0 L318 0 C338 0 353 16 353 36 L353 500 C353 502 355 503 357 503 L520 503 C540 503 556 520 556 539 L556 591 C556 610 540 627 520 627 L49 627 C29 627 13 610 13 591 L13 539 L13 539 Z " />
<glyph glyph-name="u" unicode="u" horiz-adv-x="682" d="M40 237 C40 203 48 172 62 142 C76 112 96 86 122 64 C148 42 179 24 217 11 C255 -1 296 -8 341 -8 C385 -8 426 -1 464 11 C502 24 534 42 559 64 C585 86 605 112 620 142 C634 172 642 203 642 237 L642 591 C642 610 625 627 606 627 L539 627 C519 627 503 610 503 591 L503 242 C503 209 488 180 458 154 C427 128 388 115 341 115 C293 115 255 128 224 154 C194 180 179 209 179 242 L179 591 C179 610 163 627 143 627 L76 627 C57 627 40 610 40 591 L40 237 L40 237 Z " />
<glyph glyph-name="v" unicode="v" horiz-adv-x="600" d="M44 627 C18 627 1 601 10 578 L220 23 C226 9 239 0 254 0 L346 0 C361 0 375 9 380 23 L591 578 C599 601 582 627 557 627 L492 627 C477 627 464 617 458 603 L303 179 C302 176 298 176 297 179 L142 603 C137 617 124 627 108 627 L44 627 L44 627 Z " />
<glyph glyph-name="w" unicode="w" horiz-adv-x="867" d="M43 627 C19 627 2 604 9 581 L168 26 C173 10 187 0 203 0 L314 0 C331 0 345 11 349 27 L430 359 C431 363 436 363 437 359 L517 27 C521 11 536 0 552 0 L664 0 C681 0 695 11 699 26 L857 581 C864 604 847 627 823 627 L758 627 C742 627 727 615 723 600 L613 182 C612 178 607 178 606 182 L505 599 C501 615 486 627 470 627 L398 627 C381 627 367 615 363 599 L261 181 C260 177 255 177 254 181 L143 600 C139 615 124 627 108 627 L43 627 L43 627 Z " />
<glyph glyph-name="x" unicode="x" horiz-adv-x="613" d="M27 58 C9 34 26 0 56 0 L126 0 C138 0 148 5 155 14 L304 214 C305 216 308 216 310 214 L459 14 C465 5 476 0 488 0 L558 0 C588 0 605 34 586 58 L389 311 C388 312 388 314 389 316 L586 568 C605 592 588 627 558 627 L488 627 C476 627 465 621 459 612 L310 412 C308 411 305 411 304 412 L155 612 C148 621 138 627 126 627 L56 627 C26 627 9 592 27 568 L224 316 C225 314 225 312 224 311 L27 58 L27 58 Z " />
<glyph glyph-name="y" unicode="y" horiz-adv-x="574" d="M43 627 C13 627 -4 593 14 570 L217 297 C218 296 218 295 218 294 L218 36 C218 16 234 0 254 0 L321 0 C340 0 357 16 357 36 L357 294 L357 297 L561 570 C579 593 561 627 532 627 L463 627 C452 627 441 622 434 612 L290 414 C289 412 286 412 285 414 L141 612 C134 622 123 627 112 627 L43 627 L43 627 Z " />
<glyph glyph-name="z" unicode="z" horiz-adv-x="561" d="M17 36 C17 16 33 0 53 0 L500 0 C520 0 536 16 536 36 L536 87 C536 107 520 123 500 123 L202 123 C199 123 197 126 199 129 L529 512 C534 519 538 527 538 536 L538 591 C538 610 521 627 502 627 L53 627 C33 627 17 610 17 591 L17 539 C17 520 33 503 53 503 L353 503 C356 503 357 500 355 498 L26 114 C20 108 17 99 17 91 L17 36 L17 36 Z " />
<glyph glyph-name="braceleft" unicode="&#x7b;" horiz-adv-x="358" d="M40 257 C40 240 52 225 69 222 C75 221 81 219 85 217 C95 212 100 202 100 186 L100 16 C100 -23 105 -56 115 -83 C125 -109 140 -130 161 -146 C182 -161 207 -172 235 -178 C255 -183 277 -186 302 -187 C323 -188 340 -172 340 -151 L340 -100 C340 -81 326 -66 307 -64 C301 -64 297 -63 292 -63 C281 -61 271 -57 262 -51 C253 -45 247 -36 243 -25 C240 -14 238 1 238 20 L238 188 C238 206 233 224 224 241 C216 256 204 269 189 279 C187 280 187 283 189 284 C204 294 215 307 224 322 C233 339 238 357 238 375 L238 547 C238 562 239 575 242 584 C244 594 248 602 252 608 C256 614 263 618 272 621 C281 624 291 626 301 627 C302 627 304 627 306 627 C325 628 340 644 340 663 L340 714 C340 735 323 751 302 750 C277 749 255 746 235 742 C207 736 182 725 161 710 C140 695 125 675 115 648 C105 622 100 589 100 550 L100 379 C100 363 95 352 85 347 C80 344 75 342 68 341 C51 338 40 323 40 306 L40 257 L40 257 Z " />
<glyph glyph-name="bar" unicode="&#x7c;" horiz-adv-x="179" d="M40 -87 C40 -107 56 -123 76 -123 L103 -123 C123 -123 139 -107 139 -87 L139 714 C139 734 123 750 103 750 L76 750 C56 750 40 734 40 714 L40 -87 L40 -87 Z " />
<glyph glyph-name="braceright" unicode="&#x7d;" horiz-adv-x="359" d="M18 -100 L18 -151 C18 -172 35 -188 56 -187 C81 -186 103 -183 123 -178 C151 -172 176 -161 197 -146 C218 -130 234 -109 244 -83 C253 -56 258 -23 258 16 L258 186 C258 202 263 212 273 217 C277 219 283 221 289 222 C306 225 319 240 319 257 L319 306 C319 323 307 338 290 341 C284 342 278 344 273 347 C263 352 258 363 258 379 L258 550 C258 589 253 622 244 648 C234 675 218 695 197 710 C176 725 151 736 123 742 C103 746 81 749 56 750 C35 751 18 735 18 714 L18 663 C18 644 33 628 52 627 C54 627 56 627 58 627 C67 626 77 624 86 621 C95 618 102 614 106 608 C110 602 114 594 116 584 C119 575 120 562 120 547 L120 375 C120 357 125 339 134 322 C143 307 154 294 169 284 C171 283 171 280 169 279 C154 269 143 256 134 241 C125 224 120 206 120 188 L120 20 C120 1 118 -14 115 -25 C111 -36 105 -45 96 -51 C87 -57 77 -61 66 -63 C62 -63 57 -64 51 -64 C32 -66 18 -81 18 -100 L18 -100 Z " />
<glyph glyph-name="asciitilde" unicode="&#x7e;" horiz-adv-x="540" d="M47 225 L121 225 C131 225 141 232 145 242 C145 242 145 242 145 242 C147 246 149 251 152 256 C155 261 159 265 164 268 C169 270 175 271 182 271 C196 271 211 269 226 264 C241 259 255 254 267 248 C279 243 294 237 313 232 C331 228 350 225 370 225 C390 225 408 228 424 234 C441 239 454 246 465 255 C475 264 485 275 493 288 C501 302 508 315 512 328 C513 331 515 335 516 338 C521 355 508 372 491 372 L417 372 C406 372 396 365 392 355 C390 348 387 341 384 337 C377 329 367 325 353 325 C339 325 324 327 309 332 C294 337 281 342 269 348 C257 354 242 359 223 364 C205 369 186 372 166 372 C96 372 48 334 22 259 C17 243 29 225 47 225 L47 225 Z " />
<glyph glyph-name="cent" unicode="&#xa2;" horiz-adv-x="481" d="M30 314 C30 252 49 200 85 160 C121 119 175 94 246 84 C248 83 249 82 249 80 L249 36 C249 16 265 0 285 0 L310 0 C330 0 346 16 346 36 L346 76 C346 78 347 80 349 80 C377 82 407 87 439 95 C455 99 466 114 466 130 L466 181 C466 204 445 221 423 216 C394 210 369 206 350 204 C348 204 346 205 346 208 L346 420 C346 422 348 424 350 424 C371 422 395 418 423 413 C445 408 466 425 466 448 L466 498 C466 515 454 530 438 533 C405 541 375 546 349 548 C347 548 346 550 346 551 L346 590 C346 610 330 626 310 626 L285 626 C265 626 249 610 249 590 L249 548 C249 546 248 544 246 544 C175 534 121 509 85 469 C49 428 30 376 30 314 L30 314 Z M169 314 C169 342 175 366 187 383 C199 400 218 412 245 419 C247 419 249 418 249 415 L249 213 C249 210 247 208 245 209 C218 216 198 228 187 245 C175 262 169 285 169 314 L169 314 Z " />
<glyph glyph-name="sterling" unicode="&#xa3;" horiz-adv-x="508" d="M26 36 C26 16 42 0 62 0 L454 0 C474 0 490 16 490 36 L490 87 C490 107 474 123 454 123 L237 123 C235 123 233 124 233 126 L233 334 C233 336 235 337 237 337 L396 337 C416 337 432 353 432 373 L432 398 C432 418 416 434 396 434 L237 434 C235 434 233 436 233 438 L233 464 C233 496 261 512 317 512 C356 512 398 505 443 492 C467 485 490 502 490 526 L490 574 C490 589 480 603 465 608 C413 626 362 635 311 635 C249 635 198 619 156 588 C115 556 95 515 95 466 L95 438 C95 436 93 434 91 434 L62 434 C42 434 26 418 26 398 L26 373 C26 353 42 337 62 337 L91 337 C93 337 95 336 95 334 L95 126 C95 124 93 123 91 123 L62 123 C42 123 26 107 26 87 L26 36 L26 36 Z " />
<glyph glyph-name="yen" unicode="&#xa5;" horiz-adv-x="574" d="M43 626 C14 626 -3 592 15 568 L218 295 C218 295 219 294 219 293 L219 288 C219 286 217 285 215 285 L125 285 C105 285 89 268 89 248 L89 224 C89 204 105 188 125 188 L215 188 C217 188 219 186 219 184 L219 142 C219 140 217 138 215 138 L125 138 C105 138 89 122 89 102 L89 77 C89 58 105 42 125 42 L215 42 C217 42 219 40 219 38 L219 36 C219 16 235 0 255 0 L321 0 C341 0 357 16 357 36 L357 38 C357 40 359 42 361 42 L451 42 C471 42 487 58 487 77 L487 102 C487 122 471 138 451 138 L361 138 C359 138 357 140 357 142 L357 184 C357 186 359 188 361 188 L451 188 C471 188 487 204 487 224 L487 248 C487 268 471 285 451 285 L361 285 C359 285 357 286 357 288 L357 293 C357 294 357 295 358 295 L561 568 C579 592 562 626 532 626 L464 626 C452 626 441 620 435 611 L291 413 C290 410 287 410 285 413 L141 611 C134 620 124 626 112 626 L43 626 L43 626 Z " />
<glyph glyph-name="dieresis" unicode="&#xa8;" horiz-adv-x="447" d="M101 575 C101 556 117 539 137 539 L153 539 C173 539 189 556 189 575 L189 591 C189 611 173 627 153 627 L137 627 C117 627 101 611 101 591 L101 575 Z M258 575 C258 556 274 539 294 539 L310 539 C330 539 346 556 346 575 L346 591 C346 611 330 627 310 627 L294 627 C274 627 258 611 258 591 L258 575 Z " />
<glyph glyph-name="copyright" unicode="&#xa9;" horiz-adv-x="738" d="M79 148 C108 99 147 60 198 33 C249 6 306 -8 369 -8 C432 -8 489 6 540 33 C591 60 631 99 660 148 C689 197 703 253 703 314 C703 375 689 431 660 480 C631 529 591 568 540 595 C489 622 432 636 369 636 C306 636 249 622 198 595 C147 568 108 529 79 480 C50 431 35 375 35 314 C35 253 50 197 79 148 L79 148 Z M182 496 C230 543 293 567 369 567 C446 567 508 543 557 496 C605 448 629 388 629 314 C629 240 605 180 557 132 C508 85 446 61 369 61 C293 61 230 85 182 132 C134 179 109 240 109 314 C109 388 134 449 182 496 L182 496 Z M249 199 C280 168 325 153 382 153 C412 153 440 156 467 164 C480 167 490 179 490 192 L490 192 C490 211 473 225 454 221 C431 217 407 214 383 214 C344 214 316 223 298 241 C280 259 270 284 270 314 C270 344 280 369 298 387 C316 405 344 414 383 414 C407 414 431 412 454 407 C473 404 490 417 490 436 L490 436 C490 449 480 461 467 464 C440 472 412 475 382 475 C325 475 280 460 249 429 C217 399 202 360 202 314 C202 268 217 229 249 199 L249 199 Z " />
<glyph glyph-name="guillemotleft" unicode="&#xab;" horiz-adv-x="499" d="M47 323 C37 310 37 292 47 279 L153 139 C160 130 171 125 182 125 L238 125 C267 125 284 159 266 183 L178 299 C178 300 178 302 178 303 L266 419 C285 443 268 477 238 477 L182 477 C171 477 160 471 153 462 L47 323 Z M249 323 C240 310 240 292 249 279 L355 139 C362 130 373 125 384 125 L440 125 C470 125 487 159 469 183 L380 299 C379 300 379 302 380 303 L469 419 C486 443 470 477 440 477 L384 477 C373 477 362 471 355 462 L249 323 Z " />
<glyph glyph-name="registered" unicode="&#xae;" horiz-adv-x="737" d="M78 148 C107 99 147 60 198 33 C248 6 305 -8 368 -8 C431 -8 489 6 540 33 C590 60 630 99 659 148 C688 197 702 253 702 314 C702 375 688 431 659 480 C630 529 590 568 540 595 C489 622 431 636 368 636 C305 636 248 622 198 595 C147 568 107 529 78 480 C49 431 35 375 35 314 C35 253 49 197 78 148 L78 148 Z M181 496 C229 543 292 567 368 567 C445 567 508 543 556 496 C604 448 628 388 628 314 C628 240 604 180 556 132 C508 85 445 61 368 61 C292 61 229 85 181 132 C133 179 108 240 108 314 C108 388 133 449 181 496 L181 496 Z M241 189 C241 171 256 157 273 157 L279 157 C296 157 311 171 311 189 L311 281 C311 283 312 285 314 285 L343 285 C344 285 345 284 346 283 L431 170 C437 162 447 157 457 157 L457 157 C484 157 499 188 482 209 L427 279 C426 281 427 284 429 285 C451 291 468 302 481 318 C494 336 501 354 501 375 C501 402 492 424 472 443 C452 462 428 471 398 471 L273 471 C256 471 241 456 241 439 L241 189 Z M311 344 L311 406 C311 408 312 409 314 409 L398 409 C408 409 416 406 422 399 C429 393 432 385 432 375 C432 365 429 357 422 350 C416 343 408 340 398 340 L314 340 C312 340 311 342 311 344 L311 344 Z " />
<glyph glyph-name="acute" unicode="&#xb4;" horiz-adv-x="204" d="M62 541 C50 517 67 489 94 489 L94 489 C106 489 117 495 123 505 L168 572 C184 595 167 627 138 627 L129 627 C115 627 103 620 97 608 L62 541 L62 541 Z " />
<glyph glyph-name="cedilla" unicode="&#xb8;" horiz-adv-x="248" d="M30 -146 L30 -152 C30 -173 47 -189 68 -188 C172 -181 224 -147 224 -83 C224 -67 219 -51 209 -35 C199 -20 186 -8 171 0 L95 0 C105 -8 114 -19 121 -30 C128 -42 132 -54 132 -64 C132 -90 109 -106 62 -110 C44 -112 30 -128 30 -146 L30 -146 Z " />
<glyph glyph-name="guillemotright" unicode="&#xbb;" horiz-adv-x="500" d="M31 182 C13 158 30 124 59 124 L115 124 C126 124 137 129 144 138 L250 278 C260 291 260 309 250 322 L144 461 C137 470 127 476 115 476 L59 476 C30 476 13 442 31 418 L119 302 C120 301 120 299 119 298 L31 182 Z M262 476 C232 476 215 442 233 418 L321 302 C322 301 322 299 321 298 L233 182 C215 158 232 124 262 124 L317 124 C329 124 339 129 346 138 L452 278 C462 291 462 309 452 322 L346 461 C339 470 329 476 317 476 L262 476 Z " />
<glyph glyph-name="Agrave" unicode="&#xc0;" horiz-adv-x="619" d="M19 49 C10 25 28 0 53 0 L118 0 C133 0 146 9 151 24 L195 142 C195 144 196 145 198 145 L421 145 C423 145 424 144 424 142 L468 24 C473 9 486 0 502 0 L566 0 C591 0 609 25 600 49 L389 603 C384 617 371 627 356 627 L263 627 C248 627 235 617 230 603 L19 49 Z M246 267 C243 267 241 270 242 272 L306 448 C307 451 312 451 313 448 L377 272 C378 270 376 267 374 267 L246 267 Z M265 788 C247 788 237 769 247 755 L311 659 C315 654 321 650 329 650 L360 650 C376 650 386 667 379 682 L329 777 C325 784 318 788 310 788 L265 788 Z " />
<glyph glyph-name="Aacute" unicode="&#xc1;" horiz-adv-x="619" d="M19 49 C10 25 28 0 53 0 L118 0 C133 0 146 9 151 24 L195 142 C195 144 196 145 198 145 L421 145 C423 145 424 144 424 142 L468 24 C473 9 486 0 502 0 L566 0 C591 0 609 25 600 49 L389 603 C384 617 371 627 356 627 L263 627 C248 627 235 617 230 603 L19 49 Z M246 267 C243 267 241 270 242 272 L306 448 C307 451 312 451 313 448 L377 272 C378 270 376 267 374 267 L246 267 Z M254 703 C242 679 259 651 286 651 L286 651 C298 651 309 657 315 667 L360 734 C376 757 359 789 330 789 L321 789 C307 789 295 782 289 770 L254 703 Z " />
<glyph glyph-name="Acircumflex" unicode="&#xc2;" horiz-adv-x="619" d="M19 49 C10 25 28 0 53 0 L118 0 C133 0 146 9 151 24 L195 142 C195 144 196 145 198 145 L421 145 C423 145 424 144 424 142 L468 24 C473 9 486 0 502 0 L566 0 C591 0 609 25 600 49 L389 603 C384 617 371 627 356 627 L263 627 C248 627 235 617 230 603 L19 49 Z M246 267 C243 267 241 270 242 272 L306 448 C307 451 312 451 313 448 L377 272 C378 270 376 267 374 267 L246 267 Z M197 699 C176 676 192 638 224 638 L225 638 C234 638 243 642 250 648 L307 701 C308 702 310 702 312 701 L370 648 C377 642 385 638 394 638 L396 638 C427 638 444 676 422 699 L376 747 C369 754 360 758 350 758 L269 758 C259 758 250 754 243 747 L197 699 Z " />
<glyph glyph-name="Atilde" unicode="&#xc3;" horiz-adv-x="619" d="M19 49 C10 25 28 0 53 0 L118 0 C133 0 146 9 151 24 L195 142 C195 144 196 145 198 145 L421 145 C423 145 424 144 424 142 L468 24 C473 9 486 0 502 0 L566 0 C591 0 609 25 600 49 L389 603 C384 617 371 627 356 627 L263 627 C248 627 235 617 230 603 L19 49 Z M246 267 C243 267 241 270 242 272 L306 448 C307 451 312 451 313 448 L377 272 C378 270 376 267 374 267 L246 267 Z M186 653 L201 651 C215 649 228 656 236 668 C242 678 251 683 262 683 C268 683 274 681 282 677 C289 672 296 668 303 662 C310 657 319 653 331 648 C342 644 354 642 366 642 C398 642 423 651 442 670 C450 678 457 688 462 699 C473 721 459 747 434 750 L419 752 C405 754 391 747 384 735 C377 725 368 720 357 720 C352 720 346 722 338 726 C331 730 324 735 317 741 C310 746 301 750 289 755 C278 759 266 761 254 761 C222 761 196 752 178 733 C169 724 162 714 157 703 C147 681 162 655 186 653 L186 653 Z " />
<glyph glyph-name="Adieresis" unicode="&#xc4;" horiz-adv-x="619" d="M19 49 C10 25 28 0 53 0 L118 0 C133 0 146 9 151 24 L195 142 C195 144 196 145 198 145 L421 145 C423 145 424 144 424 142 L468 24 C473 9 486 0 502 0 L566 0 C591 0 609 25 600 49 L389 603 C384 617 371 627 356 627 L263 627 C248 627 235 617 230 603 L19 49 Z M246 267 C243 267 241 270 242 272 L306 448 C307 451 312 451 313 448 L377 272 C378 270 376 267 374 267 L246 267 Z M187 697 C187 678 203 661 223 661 L239 661 C259 661 275 678 275 697 L275 713 C275 733 259 749 239 749 L223 749 C203 749 187 733 187 713 L187 697 Z M344 697 C344 678 360 661 380 661 L396 661 C416 661 432 678 432 697 L432 713 C432 733 416 749 396 749 L380 749 C360 749 344 733 344 713 L344 697 Z " />
<glyph glyph-name="Aring" unicode="&#xc5;" horiz-adv-x="619" d="M19 49 C10 25 28 0 53 0 L118 0 C133 0 146 9 151 24 L195 142 C195 144 196 145 198 145 L421 145 C423 145 424 144 424 142 L468 24 C473 9 486 0 502 0 L566 0 C591 0 609 25 600 49 L389 603 C384 617 371 627 356 627 L263 627 C248 627 235 617 230 603 L19 49 Z M246 267 C243 267 241 270 242 272 L306 448 C307 451 312 451 313 448 L377 272 C378 270 376 267 374 267 L246 267 Z M248 662 C265 645 285 636 309 636 C333 636 354 645 371 662 C388 679 396 699 396 723 C396 747 388 768 371 785 C354 802 333 810 309 810 C285 810 265 802 248 785 C231 768 222 747 222 723 C222 699 231 679 248 662 L248 662 Z M274 723 C274 733 278 741 285 748 C291 755 300 758 309 758 C319 758 327 755 334 748 C341 741 344 733 344 723 C344 714 341 706 334 699 C327 692 319 689 309 689 C300 689 291 692 285 699 C278 706 274 714 274 723 L274 723 Z " />
<glyph glyph-name="AE" unicode="&#xc6;" horiz-adv-x="836" d="M443 500 C443 502 445 504 447 504 L788 504 C808 504 824 520 824 540 L824 591 C824 611 808 627 788 627 L259 627 C244 627 231 618 225 604 L15 49 C6 25 23 0 49 0 L113 0 C128 0 142 10 147 24 L190 142 C191 144 192 145 193 145 L305 145 L305 36 C305 16 321 0 341 0 L788 0 C808 0 824 16 824 36 L824 87 C824 107 808 123 788 123 L447 123 C445 123 443 125 443 127 L443 262 C443 264 445 265 447 265 L735 265 C755 265 771 281 771 301 L771 352 C771 372 755 388 735 388 L447 388 C445 388 443 390 443 392 L443 500 L443 500 Z M305 268 L241 268 C239 268 237 270 238 273 L301 448 C302 450 304 451 305 450 L305 268 L305 268 Z " />
<glyph glyph-name="Ccedilla" unicode="&#xc7;" horiz-adv-x="638" d="M40 314 C40 231 69 150 129 88 C198 19 303 -8 402 -8 C468 -8 531 1 590 18 C605 22 616 37 616 53 L616 99 C616 122 594 139 572 134 C517 121 461 115 403 115 C344 115 275 126 229 172 C194 209 178 260 178 314 C178 365 192 417 229 456 C271 500 339 513 403 513 C461 513 517 507 572 495 C594 489 616 506 616 530 L616 576 C616 592 605 606 590 610 C531 628 468 636 402 636 C305 636 203 612 129 541 C71 481 40 400 40 314 L40 314 Z M274 -146 L274 -152 C274 -173 291 -189 312 -188 C416 -181 468 -147 468 -83 C468 -67 463 -51 453 -35 C443 -20 430 -8 415 0 L339 0 C349 -8 358 -19 365 -30 C372 -42 376 -54 376 -64 C376 -90 353 -106 306 -110 C288 -112 274 -128 274 -146 L274 -146 Z " />
<glyph glyph-name="Egrave" unicode="&#xc8;" horiz-adv-x="586" d="M40 36 C40 16 56 0 76 0 L523 0 C542 0 558 16 558 36 L558 87 C558 107 542 123 523 123 L182 123 C180 123 178 125 178 127 L178 261 C178 263 180 265 182 265 L470 265 C490 265 506 281 506 301 L506 352 C506 372 490 388 470 388 L182 388 C180 388 178 390 178 392 L178 500 C178 502 180 503 182 503 L523 503 C542 503 558 520 558 539 L558 591 C558 610 542 627 523 627 L76 627 C56 627 40 610 40 591 L40 36 Z M248 777 C230 777 220 758 230 744 L294 648 C298 643 304 639 312 639 L343 639 C359 639 369 656 362 671 L312 766 C308 773 301 777 293 777 L248 777 Z " />
<glyph glyph-name="Eacute" unicode="&#xc9;" horiz-adv-x="586" d="M40 36 C40 16 56 0 76 0 L523 0 C542 0 558 16 558 36 L558 87 C558 107 542 123 523 123 L182 123 C180 123 178 125 178 127 L178 261 C178 263 180 265 182 265 L470 265 C490 265 506 281 506 301 L506 352 C506 372 490 388 470 388 L182 388 C180 388 178 390 178 392 L178 500 C178 502 180 503 182 503 L523 503 C542 503 558 520 558 539 L558 591 C558 610 542 627 523 627 L76 627 C56 627 40 610 40 591 L40 36 Z M239 689 C227 665 244 637 271 637 L271 637 C283 637 294 643 300 653 L345 720 C361 743 344 775 315 775 L306 775 C292 775 280 768 274 756 L239 689 Z " />
<glyph glyph-name="Ecircumflex" unicode="&#xca;" horiz-adv-x="586" d="M40 36 C40 16 56 0 76 0 L523 0 C542 0 558 16 558 36 L558 87 C558 107 542 123 523 123 L182 123 C180 123 178 125 178 127 L178 261 C178 263 180 265 182 265 L470 265 C490 265 506 281 506 301 L506 352 C506 372 490 388 470 388 L182 388 C180 388 178 390 178 392 L178 500 C178 502 180 503 182 503 L523 503 C542 503 558 520 558 539 L558 591 C558 610 542 627 523 627 L76 627 C56 627 40 610 40 591 L40 36 Z M183 697 C162 674 178 636 210 636 L211 636 C220 636 229 640 236 646 L293 699 C294 700 296 700 298 699 L356 646 C363 640 371 636 380 636 L382 636 C413 636 430 674 408 697 L362 745 C355 752 346 756 336 756 L255 756 C245 756 236 752 229 745 L183 697 Z " />
<glyph glyph-name="Edieresis" unicode="&#xcb;" horiz-adv-x="586" d="M40 36 C40 16 56 0 76 0 L523 0 C542 0 558 16 558 36 L558 87 C558 107 542 123 523 123 L182 123 C180 123 178 125 178 127 L178 261 C178 263 180 265 182 265 L470 265 C490 265 506 281 506 301 L506 352 C506 372 490 388 470 388 L182 388 C180 388 178 390 178 392 L178 500 C178 502 180 503 182 503 L523 503 C542 503 558 520 558 539 L558 591 C558 610 542 627 523 627 L76 627 C56 627 40 610 40 591 L40 36 Z M169 695 C169 676 185 659 205 659 L221 659 C241 659 257 676 257 695 L257 711 C257 731 241 747 221 747 L205 747 C185 747 169 731 169 711 L169 695 Z M326 695 C326 676 342 659 362 659 L378 659 C398 659 414 676 414 695 L414 711 C414 731 398 747 378 747 L362 747 C342 747 326 731 326 711 L326 695 Z " />
<glyph glyph-name="Igrave" unicode="&#xcc;" horiz-adv-x="218" d="M40 36 C40 16 56 0 76 0 L142 0 C162 0 178 16 178 36 L178 591 C178 610 162 627 142 627 L76 627 C56 627 40 610 40 591 L40 36 Z M64 784 C46 784 36 765 46 751 L110 655 C114 650 120 646 128 646 L159 646 C175 646 185 663 178 678 L128 773 C124 780 117 784 109 784 L64 784 Z " />
<glyph glyph-name="Iacute" unicode="&#xcd;" horiz-adv-x="218" d="M40 36 C40 16 56 0 76 0 L142 0 C162 0 178 16 178 36 L178 591 C178 610 162 627 142 627 L76 627 C56 627 40 610 40 591 L40 36 Z M53 693 C41 669 58 641 85 641 L85 641 C97 641 108 647 114 657 L159 724 C175 747 158 779 129 779 L120 779 C106 779 94 772 88 760 L53 693 Z " />
<glyph glyph-name="Icircumflex" unicode="&#xce;" horiz-adv-x="218" d="M40 36 C40 16 56 0 76 0 L142 0 C162 0 178 16 178 36 L178 591 C178 610 162 627 142 627 L76 627 C56 627 40 610 40 591 L40 36 Z M-4 698 C-25 675 -9 637 23 637 L24 637 C33 637 42 641 49 647 L106 700 C107 701 109 701 111 700 L169 647 C176 641 184 637 193 637 L195 637 C226 637 243 675 221 698 L175 746 C168 753 159 757 149 757 L68 757 C58 757 49 753 42 746 L-4 698 Z " />
<glyph glyph-name="Idieresis" unicode="&#xcf;" horiz-adv-x="218" d="M40 36 C40 16 56 0 76 0 L142 0 C162 0 178 16 178 36 L178 591 C178 610 162 627 142 627 L76 627 C56 627 40 610 40 591 L40 36 Z M-16 694 C-16 675 0 658 20 658 L36 658 C56 658 72 675 72 694 L72 710 C72 730 56 746 36 746 L20 746 C0 746 -16 730 -16 710 L-16 694 Z M141 694 C141 675 157 658 177 658 L193 658 C213 658 229 675 229 694 L229 710 C229 730 213 746 193 746 L177 746 C157 746 141 730 141 710 L141 694 Z " />
<glyph glyph-name="Eth" unicode="&#xd0;" horiz-adv-x="786" d="M577 587 C527 614 469 627 404 627 L155 627 C135 627 119 611 119 591 L119 364 L76 364 C56 364 40 348 40 328 L40 301 C40 281 56 264 76 264 L119 264 L119 37 C119 17 135 0 155 0 L404 0 C493 2 582 29 644 89 C706 149 736 232 736 314 C736 431 676 533 577 587 L577 587 Z M546 176 C511 141 464 124 404 124 L261 124 C259 124 258 126 258 128 L258 264 L322 264 C342 264 358 281 358 301 L358 328 C358 348 342 364 322 364 L258 364 L258 501 C258 503 259 504 261 504 L404 504 C464 504 512 487 546 452 C581 417 598 371 598 314 C598 257 581 211 546 176 L546 176 Z " />
<glyph glyph-name="Ntilde" unicode="&#xd1;" horiz-adv-x="625" d="M40 36 C40 16 56 0 76 0 L142 0 C162 0 178 16 178 36 L178 387 C178 391 183 392 185 389 L436 16 C443 6 454 0 466 0 L549 0 C569 0 585 16 585 36 L585 591 C585 610 569 627 549 627 L483 627 C463 627 447 610 447 591 L447 240 C447 237 442 235 440 238 L189 611 C182 621 171 627 159 627 L76 627 C56 627 40 610 40 591 L40 36 Z M194 658 L209 656 C223 654 236 661 244 673 C250 683 259 688 270 688 C276 688 282 686 290 682 C297 677 304 673 311 667 C318 662 327 658 339 653 C350 649 362 647 374 647 C406 647 431 656 450 675 C458 683 465 693 470 704 C481 726 467 752 442 755 L427 757 C413 759 399 752 392 740 C385 730 376 725 365 725 C360 725 354 727 346 731 C339 735 332 740 325 746 C318 751 309 755 297 760 C286 764 274 766 262 766 C230 766 204 757 186 738 C177 729 170 719 165 708 C155 686 170 660 194 658 L194 658 Z " />
<glyph glyph-name="Ograve" unicode="&#xd2;" horiz-adv-x="736" d="M58 187 C74 148 96 113 125 85 C154 56 189 33 231 17 C273 0 318 -8 368 -8 C417 -8 463 0 505 17 C547 33 582 56 611 85 C639 113 661 148 677 187 C693 226 701 269 701 314 C701 359 693 401 677 441 C661 480 639 514 611 543 C583 572 547 595 505 611 C464 628 418 636 368 636 C318 636 272 628 230 611 C189 595 153 572 125 543 C96 514 74 480 58 441 C43 401 35 359 35 314 C35 269 43 226 58 187 L58 187 Z M173 314 C173 373 190 421 224 458 C258 495 306 513 368 513 C429 513 477 495 511 458 C546 421 562 373 562 314 C562 255 546 207 511 170 C477 133 429 115 368 115 C307 115 259 133 224 170 C190 207 173 255 173 314 L173 314 Z M325 781 C307 781 297 762 307 748 L371 652 C375 647 381 643 389 643 L420 643 C436 643 446 660 439 675 L389 770 C385 777 378 781 370 781 L325 781 Z " />
<glyph glyph-name="Oacute" unicode="&#xd3;" horiz-adv-x="736" d="M58 187 C74 148 96 113 125 85 C154 56 189 33 231 17 C273 0 318 -8 368 -8 C417 -8 463 0 505 17 C547 33 582 56 611 85 C639 113 661 148 677 187 C693 226 701 269 701 314 C701 359 693 401 677 441 C661 480 639 514 611 543 C583 572 547 595 505 611 C464 628 418 636 368 636 C318 636 272 628 230 611 C189 595 153 572 125 543 C96 514 74 480 58 441 C43 401 35 359 35 314 C35 269 43 226 58 187 L58 187 Z M173 314 C173 373 190 421 224 458 C258 495 306 513 368 513 C429 513 477 495 511 458 C546 421 562 373 562 314 C562 255 546 207 511 170 C477 133 429 115 368 115 C307 115 259 133 224 170 C190 207 173 255 173 314 L173 314 Z M313 696 C301 672 318 644 345 644 L345 644 C357 644 368 650 374 660 L419 727 C435 750 418 782 389 782 L380 782 C366 782 354 775 348 763 L313 696 Z " />
<glyph glyph-name="Ocircumflex" unicode="&#xd4;" horiz-adv-x="736" d="M58 187 C74 148 96 113 125 85 C154 56 189 33 231 17 C273 0 318 -8 368 -8 C417 -8 463 0 505 17 C547 33 582 56 611 85 C639 113 661 148 677 187 C693 226 701 269 701 314 C701 359 693 401 677 441 C661 480 639 514 611 543 C583 572 547 595 505 611 C464 628 418 636 368 636 C318 636 272 628 230 611 C189 595 153 572 125 543 C96 514 74 480 58 441 C43 401 35 359 35 314 C35 269 43 226 58 187 L58 187 Z M173 314 C173 373 190 421 224 458 C258 495 306 513 368 513 C429 513 477 495 511 458 C546 421 562 373 562 314 C562 255 546 207 511 170 C477 133 429 115 368 115 C307 115 259 133 224 170 C190 207 173 255 173 314 L173 314 Z M256 703 C235 680 251 642 283 642 L284 642 C293 642 302 646 309 652 L366 705 C367 706 369 706 371 705 L429 652 C436 646 444 642 453 642 L455 642 C486 642 503 680 481 703 L435 751 C428 758 419 762 409 762 L328 762 C318 762 309 758 302 751 L256 703 Z " />
<glyph glyph-name="Otilde" unicode="&#xd5;" horiz-adv-x="736" d="M58 187 C74 148 96 113 125 85 C154 56 189 33 231 17 C273 0 318 -8 368 -8 C417 -8 463 0 505 17 C547 33 582 56 611 85 C639 113 661 148 677 187 C693 226 701 269 701 314 C701 359 693 401 677 441 C661 480 639 514 611 543 C583 572 547 595 505 611 C464 628 418 636 368 636 C318 636 272 628 230 611 C189 595 153 572 125 543 C96 514 74 480 58 441 C43 401 35 359 35 314 C35 269 43 226 58 187 L58 187 Z M173 314 C173 373 190 421 224 458 C258 495 306 513 368 513 C429 513 477 495 511 458 C546 421 562 373 562 314 C562 255 546 207 511 170 C477 133 429 115 368 115 C307 115 259 133 224 170 C190 207 173 255 173 314 L173 314 Z M243 657 L258 655 C272 653 285 660 293 672 C299 682 308 687 319 687 C325 687 331 685 339 681 C346 676 353 672 360 666 C367 661 376 657 388 652 C399 648 411 646 423 646 C455 646 480 655 499 674 C507 682 514 692 519 703 C530 725 516 751 491 754 L476 756 C462 758 448 751 441 739 C434 729 425 724 414 724 C409 724 403 726 395 730 C388 734 381 739 374 745 C367 750 358 754 346 759 C335 763 323 765 311 765 C279 765 253 756 235 737 C226 728 219 718 214 707 C204 685 219 659 243 657 L243 657 Z " />
<glyph glyph-name="Odieresis" unicode="&#xd6;" horiz-adv-x="736" d="M58 187 C74 148 96 113 125 85 C154 56 189 33 231 17 C273 0 318 -8 368 -8 C417 -8 463 0 505 17 C547 33 582 56 611 85 C639 113 661 148 677 187 C693 226 701 269 701 314 C701 359 693 401 677 441 C661 480 639 514 611 543 C583 572 547 595 505 611 C464 628 418 636 368 636 C318 636 272 628 230 611 C189 595 153 572 125 543 C96 514 74 480 58 441 C43 401 35 359 35 314 C35 269 43 226 58 187 L58 187 Z M173 314 C173 373 190 421 224 458 C258 495 306 513 368 513 C429 513 477 495 511 458 C546 421 562 373 562 314 C562 255 546 207 511 170 C477 133 429 115 368 115 C307 115 259 133 224 170 C190 207 173 255 173 314 L173 314 Z M248 692 C248 673 264 656 284 656 L300 656 C320 656 336 673 336 692 L336 708 C336 728 320 744 300 744 L284 744 C264 744 248 728 248 708 L248 692 Z M405 692 C405 673 421 656 441 656 L457 656 C477 656 493 673 493 692 L493 708 C493 728 477 744 457 744 L441 744 C421 744 405 728 405 708 L405 692 Z " />
<glyph glyph-name="Oslash" unicode="&#xd8;" horiz-adv-x="736" d="M674 441 C658 481 635 515 607 544 C599 552 591 559 582 566 L585 571 C601 595 584 627 555 627 L548 627 C536 627 525 621 518 612 L515 606 C511 608 506 610 502 612 C460 629 414 637 364 637 C314 637 268 629 227 612 C185 595 150 572 121 544 C93 515 71 481 55 441 C39 402 31 359 31 314 C31 269 39 227 55 188 C71 148 93 114 121 85 C129 77 137 70 146 63 L143 56 C126 32 143 0 172 0 L179 0 C191 0 202 6 209 15 L213 23 C218 21 222 19 227 17 C269 1 315 -8 364 -8 C413 -8 459 1 501 17 C543 34 578 56 607 85 C635 114 658 148 674 188 C689 227 697 269 697 314 C697 359 689 402 674 441 L674 441 Z M169 314 C169 373 186 422 221 459 C255 495 303 514 364 514 C394 514 420 510 444 501 L220 172 C186 208 169 256 169 314 L169 314 Z M507 171 C473 134 425 115 364 115 C334 115 308 120 285 128 L508 458 C542 421 559 373 559 314 C559 255 542 207 507 171 L507 171 Z " />
<glyph glyph-name="Ugrave" unicode="&#xd9;" horiz-adv-x="682" d="M40 237 C40 203 48 172 62 142 C76 112 96 86 122 64 C148 42 179 24 217 11 C255 -1 296 -8 341 -8 C385 -8 426 -1 464 11 C502 24 534 42 559 64 C585 86 605 112 620 142 C634 172 642 203 642 237 L642 591 C642 610 625 627 606 627 L539 627 C519 627 503 610 503 591 L503 242 C503 209 488 180 458 154 C427 128 388 115 341 115 C293 115 255 128 224 154 C194 180 179 209 179 242 L179 591 C179 610 163 627 143 627 L76 627 C57 627 40 610 40 591 L40 237 Z M293 771 C275 771 265 752 275 738 L339 642 C343 637 349 633 357 633 L388 633 C404 633 414 650 407 665 L357 760 C353 767 346 771 338 771 L293 771 Z " />
<glyph glyph-name="Uacute" unicode="&#xda;" horiz-adv-x="682" d="M40 237 C40 203 48 172 62 142 C76 112 96 86 122 64 C148 42 179 24 217 11 C255 -1 296 -8 341 -8 C385 -8 426 -1 464 11 C502 24 534 42 559 64 C585 86 605 112 620 142 C634 172 642 203 642 237 L642 591 C642 610 625 627 606 627 L539 627 C519 627 503 610 503 591 L503 242 C503 209 488 180 458 154 C427 128 388 115 341 115 C293 115 255 128 224 154 C194 180 179 209 179 242 L179 591 C179 610 163 627 143 627 L76 627 C57 627 40 610 40 591 L40 237 Z M283 692 C271 668 288 640 315 640 L315 640 C327 640 338 646 344 656 L389 723 C405 746 388 778 359 778 L350 778 C336 778 324 771 318 759 L283 692 Z " />
<glyph glyph-name="Ucircumflex" unicode="&#xdb;" horiz-adv-x="682" d="M40 237 C40 203 48 172 62 142 C76 112 96 86 122 64 C148 42 179 24 217 11 C255 -1 296 -8 341 -8 C385 -8 426 -1 464 11 C502 24 534 42 559 64 C585 86 605 112 620 142 C634 172 642 203 642 237 L642 591 C642 610 625 627 606 627 L539 627 C519 627 503 610 503 591 L503 242 C503 209 488 180 458 154 C427 128 388 115 341 115 C293 115 255 128 224 154 C194 180 179 209 179 242 L179 591 C179 610 163 627 143 627 L76 627 C57 627 40 610 40 591 L40 237 Z M224 695 C203 672 219 634 251 634 L252 634 C261 634 270 638 277 644 L334 697 C335 698 337 698 339 697 L397 644 C404 638 412 634 421 634 L423 634 C454 634 471 672 449 695 L403 743 C396 750 387 754 377 754 L296 754 C286 754 277 750 270 743 L224 695 Z " />
<glyph glyph-name="Udieresis" unicode="&#xdc;" horiz-adv-x="682" d="M40 237 C40 203 48 172 62 142 C76 112 96 86 122 64 C148 42 179 24 217 11 C255 -1 296 -8 341 -8 C385 -8 426 -1 464 11 C502 24 534 42 559 64 C585 86 605 112 620 142 C634 172 642 203 642 237 L642 591 C642 610 625 627 606 627 L539 627 C519 627 503 610 503 591 L503 242 C503 209 488 180 458 154 C427 128 388 115 341 115 C293 115 255 128 224 154 C194 180 179 209 179 242 L179 591 C179 610 163 627 143 627 L76 627 C57 627 40 610 40 591 L40 237 Z M212 696 C212 677 228 660 248 660 L264 660 C284 660 300 677 300 696 L300 712 C300 732 284 748 264 748 L248 748 C228 748 212 732 212 712 L212 696 Z M369 696 C369 677 385 660 405 660 L421 660 C441 660 457 677 457 696 L457 712 C457 732 441 748 421 748 L405 748 C385 748 369 732 369 712 L369 696 Z " />
<glyph glyph-name="Yacute" unicode="&#xdd;" horiz-adv-x="574" d="M43 627 C13 627 -4 593 14 570 L217 297 C218 296 218 295 218 294 L218 36 C218 16 234 0 254 0 L321 0 C340 0 357 16 357 36 L357 294 C357 295 357 296 357 297 L561 570 C579 593 561 627 532 627 L463 627 C452 627 441 622 434 612 L290 414 C289 412 286 412 285 414 L141 612 C134 622 123 627 112 627 L43 627 Z M234 686 C222 662 239 634 266 634 L266 634 C278 634 289 640 295 650 L340 717 C356 740 339 772 310 772 L301 772 C287 772 275 765 269 753 L234 686 Z " />
<glyph glyph-name="agrave" unicode="&#xe0;" horiz-adv-x="639" d="M604 316 C604 572 508 646 242 635 C198 633 129 625 79 610 C63 606 53 592 53 576 L53 528 C53 505 75 488 98 493 C137 501 198 512 241 513 C281 515 455 528 455 390 C329 418 180 401 110 351 C44 304 21 236 26 152 C30 79 79 -8 243 -8 C373 -8 444 39 462 50 L462 45 C462 11 478 0 498 0 L568 0 C588 0 604 16 604 36 L604 314 C604 315 604 315 604 316 L604 316 Z M231 115 C149 117 164 197 164 197 C166 264 289 310 453 269 L453 268 C453 223 443 110 231 115 L231 115 Z M250 778 C232 778 222 759 232 745 L296 649 C300 644 306 640 314 640 L345 640 C361 640 371 657 364 672 L314 767 C310 774 303 778 295 778 L250 778 Z " />
<glyph glyph-name="aacute" unicode="&#xe1;" horiz-adv-x="639" d="M604 316 C604 572 508 646 242 635 C198 633 129 625 79 610 C63 606 53 592 53 576 L53 528 C53 505 75 488 98 493 C137 501 198 512 241 513 C281 515 455 528 455 390 C329 418 180 401 110 351 C44 304 21 236 26 152 C30 79 79 -8 243 -8 C373 -8 444 39 462 50 L462 45 C462 11 478 0 498 0 L568 0 C588 0 604 16 604 36 L604 314 C604 315 604 315 604 316 L604 316 Z M231 115 C149 117 164 197 164 197 C166 264 289 310 453 269 L453 268 C453 223 443 110 231 115 L231 115 Z M264 696 C252 672 269 644 296 644 L296 644 C308 644 319 650 325 660 L370 727 C386 750 369 782 340 782 L331 782 C317 782 305 775 299 763 L264 696 Z " />
<glyph glyph-name="acircumflex" unicode="&#xe2;" horiz-adv-x="639" d="M604 316 C604 572 508 646 242 635 C198 633 129 625 79 610 C63 606 53 592 53 576 L53 528 C53 505 75 488 98 493 C137 501 198 512 241 513 C281 515 455 528 455 390 C329 418 180 401 110 351 C44 304 21 236 26 152 C30 79 79 -8 243 -8 C373 -8 444 39 462 50 L462 45 C462 11 478 0 498 0 L568 0 C588 0 604 16 604 36 L604 314 C604 315 604 315 604 316 L604 316 Z M231 115 C149 117 164 197 164 197 C166 264 289 310 453 269 L453 268 C453 223 443 110 231 115 L231 115 Z M200 708 C179 685 195 647 227 647 L228 647 C237 647 246 651 253 657 L310 710 C311 711 313 711 315 710 L373 657 C380 651 388 647 397 647 L399 647 C430 647 447 685 425 708 L379 756 C372 763 363 767 353 767 L272 767 C262 767 253 763 246 756 L200 708 Z " />
<glyph glyph-name="atilde" unicode="&#xe3;" horiz-adv-x="639" d="M604 316 C604 572 508 646 242 635 C198 633 129 625 79 610 C63 606 53 592 53 576 L53 528 C53 505 75 488 98 493 C137 501 198 512 241 513 C281 515 455 528 455 390 C329 418 180 401 110 351 C44 304 21 236 26 152 C30 79 79 -8 243 -8 C373 -8 444 39 462 50 L462 45 C462 11 478 0 498 0 L568 0 C588 0 604 16 604 36 L604 314 C604 315 604 315 604 316 L604 316 Z M231 115 C149 117 164 197 164 197 C166 264 289 310 453 269 L453 268 C453 223 443 110 231 115 L231 115 Z M194 659 L209 657 C223 655 236 662 244 674 C250 684 259 689 270 689 C276 689 282 687 290 683 C297 678 304 674 311 668 C318 663 327 659 339 654 C350 650 362 648 374 648 C406 648 431 657 450 676 C458 684 465 694 470 705 C481 727 467 753 442 756 L427 758 C413 760 399 753 392 741 C385 731 376 726 365 726 C360 726 354 728 346 732 C339 736 332 741 325 747 C318 752 309 756 297 761 C286 765 274 767 262 767 C230 767 204 758 186 739 C177 730 170 720 165 709 C155 687 170 661 194 659 L194 659 Z " />
<glyph glyph-name="adieresis" unicode="&#xe4;" horiz-adv-x="639" d="M604 316 C604 572 508 646 242 635 C198 633 129 625 79 610 C63 606 53 592 53 576 L53 528 C53 505 75 488 98 493 C137 501 198 512 241 513 C281 515 455 528 455 390 C329 418 180 401 110 351 C44 304 21 236 26 152 C30 79 79 -8 243 -8 C373 -8 444 39 462 50 L462 45 C462 11 478 0 498 0 L568 0 C588 0 604 16 604 36 L604 314 C604 315 604 315 604 316 L604 316 Z M231 115 C149 117 164 197 164 197 C166 264 289 310 453 269 L453 268 C453 223 443 110 231 115 L231 115 Z M191 691 C191 672 207 655 227 655 L243 655 C263 655 279 672 279 691 L279 707 C279 727 263 743 243 743 L227 743 C207 743 191 727 191 707 L191 691 Z M348 691 C348 672 364 655 384 655 L400 655 C420 655 436 672 436 691 L436 707 C436 727 420 743 400 743 L384 743 C364 743 348 727 348 707 L348 691 Z " />
<glyph glyph-name="aring" unicode="&#xe5;" horiz-adv-x="639" d="M604 316 C604 572 508 646 242 635 C198 633 129 625 79 610 C63 606 53 592 53 576 L53 528 C53 505 75 488 98 493 C137 501 198 512 241 513 C281 515 455 528 455 390 C329 418 180 401 110 351 C44 304 21 236 26 152 C30 79 79 -8 243 -8 C373 -8 444 39 462 50 L462 45 C462 11 478 0 498 0 L568 0 C588 0 604 16 604 36 L604 314 C604 315 604 315 604 316 L604 316 Z M231 115 C149 117 164 197 164 197 C166 264 289 310 453 269 L453 268 C453 223 443 110 231 115 L231 115 Z M253 669 C270 652 290 643 314 643 C338 643 359 652 376 669 C393 686 401 706 401 730 C401 754 393 775 376 792 C359 809 338 817 314 817 C290 817 270 809 253 792 C236 775 227 754 227 730 C227 706 236 686 253 669 L253 669 Z M279 730 C279 740 283 748 290 755 C296 762 305 765 314 765 C324 765 332 762 339 755 C346 748 349 740 349 730 C349 721 346 713 339 706 C332 699 324 696 314 696 C305 696 296 699 290 706 C283 713 279 721 279 730 L279 730 Z " />
<glyph glyph-name="ae" unicode="&#xe6;" horiz-adv-x="1059" d="M985 134 C930 122 874 116 816 115 C736 114 621 153 594 261 C890 253 1044 296 1044 433 C1044 551 934 636 798 636 C676 636 597 592 547 544 C494 618 396 642 238 635 C193 634 124 625 74 610 C59 606 48 592 48 576 L49 528 C49 505 70 488 93 493 C132 501 193 512 237 514 C276 515 450 529 450 390 C324 418 175 401 105 351 C39 304 16 236 21 153 C25 80 74 -8 238 -8 C369 -8 439 36 457 47 L457 46 C457 11 473 0 493 0 L564 0 C584 0 600 17 600 37 L600 44 C667 6 742 -8 815 -8 C882 -8 944 1 1003 18 C1019 23 1029 37 1029 53 L1029 99 C1029 122 1008 139 985 134 L985 134 Z M226 115 C144 117 157 197 157 197 C159 267 284 310 448 270 L448 268 C449 232 449 110 226 115 L226 115 Z M720 501 C838 540 918 485 918 446 C918 402 830 379 600 379 C604 403 637 474 720 501 L720 501 Z " />
<glyph glyph-name="ccedilla" unicode="&#xe7;" horiz-adv-x="638" d="M40 314 C40 231 69 150 129 88 C198 19 303 -8 402 -8 C468 -8 531 1 590 18 C605 22 616 37 616 53 L616 99 C616 122 594 139 572 134 C517 121 461 115 403 115 C344 115 275 126 229 172 C194 209 178 260 178 314 C178 365 192 417 229 456 C271 500 339 513 403 513 C461 513 517 507 572 495 C594 489 616 506 616 530 L616 576 C616 592 605 606 590 610 C531 628 468 636 402 636 C305 636 203 612 129 541 C71 481 40 400 40 314 L40 314 Z M222 -146 L222 -152 C222 -173 239 -189 260 -188 C364 -181 416 -147 416 -83 C416 -67 411 -51 401 -35 C391 -20 378 -8 363 0 L287 0 C297 -8 306 -19 313 -30 C320 -42 324 -54 324 -64 C324 -90 301 -106 254 -110 C236 -112 222 -128 222 -146 L222 -146 Z " />
<glyph glyph-name="egrave" unicode="&#xe8;" horiz-adv-x="645" d="M567 134 C512 121 455 116 398 115 C312 114 196 157 176 261 C476 252 626 295 626 432 C626 550 516 636 380 636 C149 636 73 477 57 438 C42 400 35 359 35 314 C35 172 120 62 238 18 C285 1 338 -8 396 -8 C464 -8 526 1 585 18 C600 23 611 37 611 53 L611 99 C611 122 589 139 567 134 L567 134 Z M301 501 C420 540 500 485 500 446 C500 402 412 379 182 379 C186 403 218 474 301 501 L301 501 Z M271 787 C253 787 243 768 253 754 L317 658 C321 653 327 649 335 649 L366 649 C382 649 392 666 385 681 L335 776 C331 783 324 787 316 787 L271 787 Z " />
<glyph glyph-name="eacute" unicode="&#xe9;" horiz-adv-x="645" d="M567 134 C512 121 455 116 398 115 C312 114 196 157 176 261 C476 252 626 295 626 432 C626 550 516 636 380 636 C149 636 73 477 57 438 C42 400 35 359 35 314 C35 172 120 62 238 18 C285 1 338 -8 396 -8 C464 -8 526 1 585 18 C600 23 611 37 611 53 L611 99 C611 122 589 139 567 134 L567 134 Z M301 501 C420 540 500 485 500 446 C500 402 412 379 182 379 C186 403 218 474 301 501 L301 501 Z M269 693 C257 669 274 641 301 641 L301 641 C313 641 324 647 330 657 L375 724 C391 747 374 779 345 779 L336 779 C322 779 310 772 304 760 L269 693 Z " />
<glyph glyph-name="ecircumflex" unicode="&#xea;" horiz-adv-x="645" d="M567 134 C512 121 455 116 398 115 C312 114 196 157 176 261 C476 252 626 295 626 432 C626 550 516 636 380 636 C149 636 73 477 57 438 C42 400 35 359 35 314 C35 172 120 62 238 18 C285 1 338 -8 396 -8 C464 -8 526 1 585 18 C600 23 611 37 611 53 L611 99 C611 122 589 139 567 134 L567 134 Z M301 501 C420 540 500 485 500 446 C500 402 412 379 182 379 C186 403 218 474 301 501 L301 501 Z M204 705 C183 682 199 644 231 644 L232 644 C241 644 250 648 257 654 L314 707 C315 708 317 708 319 707 L377 654 C384 648 392 644 401 644 L403 644 C434 644 451 682 429 705 L383 753 C376 760 367 764 357 764 L276 764 C266 764 257 760 250 753 L204 705 Z " />
<glyph glyph-name="edieresis" unicode="&#xeb;" horiz-adv-x="645" d="M567 134 C512 121 455 116 398 115 C312 114 196 157 176 261 C476 252 626 295 626 432 C626 550 516 636 380 636 C149 636 73 477 57 438 C42 400 35 359 35 314 C35 172 120 62 238 18 C285 1 338 -8 396 -8 C464 -8 526 1 585 18 C600 23 611 37 611 53 L611 99 C611 122 589 139 567 134 L567 134 Z M301 501 C420 540 500 485 500 446 C500 402 412 379 182 379 C186 403 218 474 301 501 L301 501 Z M198 690 C198 671 214 654 234 654 L250 654 C270 654 286 671 286 690 L286 706 C286 726 270 742 250 742 L234 742 C214 742 198 726 198 706 L198 690 Z M355 690 C355 671 371 654 391 654 L407 654 C427 654 443 671 443 690 L443 706 C443 726 427 742 407 742 L391 742 C371 742 355 726 355 706 L355 690 Z " />
<glyph glyph-name="igrave" unicode="&#xec;" horiz-adv-x="218" d="M40 36 C40 16 56 0 76 0 L142 0 C162 0 178 16 178 36 L178 591 C178 610 162 627 142 627 L76 627 C56 627 40 610 40 591 L40 36 Z M56 775 C38 775 28 756 38 742 L102 646 C106 641 112 637 120 637 L151 637 C167 637 177 654 170 669 L120 764 C116 771 109 775 101 775 L56 775 Z " />
<glyph glyph-name="iacute" unicode="&#xed;" horiz-adv-x="218" d="M40 36 C40 16 56 0 76 0 L142 0 C162 0 178 16 178 36 L178 591 C178 610 162 627 142 627 L76 627 C56 627 40 610 40 591 L40 36 Z M54 685 C42 661 59 633 86 633 L86 633 C98 633 109 639 115 649 L160 716 C176 739 159 771 130 771 L121 771 C107 771 95 764 89 752 L54 685 Z " />
<glyph glyph-name="icircumflex" unicode="&#xee;" horiz-adv-x="218" d="M40 36 C40 16 56 0 76 0 L142 0 C162 0 178 16 178 36 L178 591 C178 610 162 627 142 627 L76 627 C56 627 40 610 40 591 L40 36 Z M-6 695 C-27 672 -11 634 21 634 L22 634 C31 634 40 638 47 644 L104 697 C105 698 107 698 109 697 L167 644 C174 638 182 634 191 634 L193 634 C224 634 241 672 219 695 L173 743 C166 750 157 754 147 754 L66 754 C56 754 47 750 40 743 L-6 695 Z " />
<glyph glyph-name="idieresis" unicode="&#xef;" horiz-adv-x="218" d="M40 36 C40 16 56 0 76 0 L142 0 C162 0 178 16 178 36 L178 591 C178 610 162 627 142 627 L76 627 C56 627 40 610 40 591 L40 36 Z M-13 692 C-13 673 3 656 23 656 L39 656 C59 656 75 673 75 692 L75 708 C75 728 59 744 39 744 L23 744 C3 744 -13 728 -13 708 L-13 692 Z M144 692 C144 673 160 656 180 656 L196 656 C216 656 232 673 232 692 L232 708 C232 728 216 744 196 744 L180 744 C160 744 144 728 144 708 L144 692 Z " />
<glyph glyph-name="ntilde" unicode="&#xf1;" horiz-adv-x="546" d="M40 36 C40 16 56 0 76 0 L142 0 C162 0 178 16 178 36 L178 428 C178 454 186 474 202 489 C217 504 242 512 276 512 C310 512 334 504 350 489 C365 474 373 454 373 428 L373 36 C373 16 389 0 409 0 L475 0 C495 0 511 16 511 36 L511 428 C511 490 493 541 457 579 C422 617 374 636 313 636 C257 636 210 619 173 587 C171 585 168 587 167 590 L167 594 C165 612 150 627 131 627 L76 627 C56 627 40 610 40 591 L40 36 Z M152 657 L167 655 C181 653 194 660 202 672 C208 682 217 687 228 687 C234 687 240 685 248 681 C255 676 262 672 269 666 C276 661 285 657 297 652 C308 648 320 646 332 646 C364 646 389 655 408 674 C416 682 423 692 428 703 C439 725 425 751 400 754 L385 756 C371 758 357 751 350 739 C343 729 334 724 323 724 C318 724 312 726 304 730 C297 734 290 739 283 745 C276 750 267 754 255 759 C244 763 232 765 220 765 C188 765 162 756 144 737 C135 728 128 718 123 707 C113 685 128 659 152 657 L152 657 Z " />
<glyph glyph-name="ograve" unicode="&#xf2;" horiz-adv-x="736" d="M58 187 L58 187 C74 148 96 113 125 85 C154 56 189 33 231 17 C273 0 318 -8 368 -8 C417 -8 463 0 505 17 C547 33 582 56 611 85 C639 113 661 148 677 187 C693 226 701 269 701 314 C701 359 693 401 677 441 C661 480 639 514 611 543 C583 572 547 595 505 611 C464 628 418 636 368 636 C318 636 272 628 230 611 C189 595 153 572 125 543 C96 514 74 480 58 441 C43 401 35 359 35 314 C35 269 43 226 58 187 L58 187 Z M173 314 C173 373 190 421 224 458 C258 495 306 513 368 513 C429 513 477 495 511 458 C546 421 562 373 562 314 C562 255 546 207 511 170 C477 133 429 115 368 115 C307 115 259 133 224 170 C190 207 173 255 173 314 L173 314 Z M309 786 C291 786 281 767 291 753 L355 657 C359 652 365 648 373 648 L404 648 C420 648 430 665 423 680 L373 775 C369 782 362 786 354 786 L309 786 Z " />
<glyph glyph-name="oacute" unicode="&#xf3;" horiz-adv-x="736" d="M58 187 L58 187 C74 148 96 113 125 85 C154 56 189 33 231 17 C273 0 318 -8 368 -8 C417 -8 463 0 505 17 C547 33 582 56 611 85 C639 113 661 148 677 187 C693 226 701 269 701 314 C701 359 693 401 677 441 C661 480 639 514 611 543 C583 572 547 595 505 611 C464 628 418 636 368 636 C318 636 272 628 230 611 C189 595 153 572 125 543 C96 514 74 480 58 441 C43 401 35 359 35 314 C35 269 43 226 58 187 L58 187 Z M173 314 C173 373 190 421 224 458 C258 495 306 513 368 513 C429 513 477 495 511 458 C546 421 562 373 562 314 C562 255 546 207 511 170 C477 133 429 115 368 115 C307 115 259 133 224 170 C190 207 173 255 173 314 L173 314 Z M313 695 C301 671 318 643 345 643 L345 643 C357 643 368 649 374 659 L419 726 C435 749 418 781 389 781 L380 781 C366 781 354 774 348 762 L313 695 Z " />
<glyph glyph-name="ocircumflex" unicode="&#xf4;" horiz-adv-x="736" d="M58 187 L58 187 C74 148 96 113 125 85 C154 56 189 33 231 17 C273 0 318 -8 368 -8 C417 -8 463 0 505 17 C547 33 582 56 611 85 C639 113 661 148 677 187 C693 226 701 269 701 314 C701 359 693 401 677 441 C661 480 639 514 611 543 C583 572 547 595 505 611 C464 628 418 636 368 636 C318 636 272 628 230 611 C189 595 153 572 125 543 C96 514 74 480 58 441 C43 401 35 359 35 314 C35 269 43 226 58 187 L58 187 Z M173 314 C173 373 190 421 224 458 C258 495 306 513 368 513 C429 513 477 495 511 458 C546 421 562 373 562 314 C562 255 546 207 511 170 C477 133 429 115 368 115 C307 115 259 133 224 170 C190 207 173 255 173 314 L173 314 Z M249 700 C228 677 244 639 276 639 L277 639 C286 639 295 643 302 649 L359 702 C360 703 362 703 364 702 L422 649 C429 643 437 639 446 639 L448 639 C479 639 496 677 474 700 L428 748 C421 755 412 759 402 759 L321 759 C311 759 302 755 295 748 L249 700 Z " />
<glyph glyph-name="otilde" unicode="&#xf5;" horiz-adv-x="736" d="M58 187 L58 187 C74 148 96 113 125 85 C154 56 189 33 231 17 C273 0 318 -8 368 -8 C417 -8 463 0 505 17 C547 33 582 56 611 85 C639 113 661 148 677 187 C693 226 701 269 701 314 C701 359 693 401 677 441 C661 480 639 514 611 543 C583 572 547 595 505 611 C464 628 418 636 368 636 C318 636 272 628 230 611 C189 595 153 572 125 543 C96 514 74 480 58 441 C43 401 35 359 35 314 C35 269 43 226 58 187 L58 187 Z M173 314 C173 373 190 421 224 458 C258 495 306 513 368 513 C429 513 477 495 511 458 C546 421 562 373 562 314 C562 255 546 207 511 170 C477 133 429 115 368 115 C307 115 259 133 224 170 C190 207 173 255 173 314 L173 314 Z M237 658 L252 656 C266 654 279 661 287 673 C293 683 302 688 313 688 C319 688 325 686 333 682 C340 677 347 673 354 667 C361 662 370 658 382 653 C393 649 405 647 417 647 C449 647 474 656 493 675 C501 683 508 693 513 704 C524 726 510 752 485 755 L470 757 C456 759 442 752 435 740 C428 730 419 725 408 725 C403 725 397 727 389 731 C382 735 375 740 368 746 C361 751 352 755 340 760 C329 764 317 766 305 766 C273 766 247 757 229 738 C220 729 213 719 208 708 C198 686 213 660 237 658 L237 658 Z " />
<glyph glyph-name="odieresis" unicode="&#xf6;" horiz-adv-x="736" d="M58 187 L58 187 C74 148 96 113 125 85 C154 56 189 33 231 17 C273 0 318 -8 368 -8 C417 -8 463 0 505 17 C547 33 582 56 611 85 C639 113 661 148 677 187 C693 226 701 269 701 314 C701 359 693 401 677 441 C661 480 639 514 611 543 C583 572 547 595 505 611 C464 628 418 636 368 636 C318 636 272 628 230 611 C189 595 153 572 125 543 C96 514 74 480 58 441 C43 401 35 359 35 314 C35 269 43 226 58 187 L58 187 Z M173 314 C173 373 190 421 224 458 C258 495 306 513 368 513 C429 513 477 495 511 458 C546 421 562 373 562 314 C562 255 546 207 511 170 C477 133 429 115 368 115 C307 115 259 133 224 170 C190 207 173 255 173 314 L173 314 Z M243 688 C243 669 259 652 279 652 L295 652 C315 652 331 669 331 688 L331 704 C331 724 315 740 295 740 L279 740 C259 740 243 724 243 704 L243 688 Z M400 688 C400 669 416 652 436 652 L452 652 C472 652 488 669 488 688 L488 704 C488 724 472 740 452 740 L436 740 C416 740 400 724 400 704 L400 688 Z " />
<glyph glyph-name="oslash" unicode="&#xf8;" horiz-adv-x="736" d="M674 441 C658 481 635 515 607 544 C599 552 591 559 582 566 L585 571 C601 595 584 627 555 627 L548 627 C536 627 525 621 518 612 L515 606 L502 612 C460 629 414 637 364 637 C314 637 268 629 227 612 C185 595 150 572 121 544 C93 515 71 481 55 441 C39 402 31 359 31 314 C31 269 39 227 55 188 C71 148 93 114 121 85 C129 77 137 70 146 63 L143 56 C126 32 143 0 172 0 L179 0 C191 0 202 6 209 15 L213 23 L227 17 C269 1 315 -8 364 -8 C413 -8 459 1 501 17 C543 34 578 56 607 85 C635 114 658 148 674 188 C689 227 697 269 697 314 C697 359 689 402 674 441 L674 441 L674 441 Z M169 314 C169 373 186 422 221 459 C255 495 303 514 364 514 C394 514 420 510 444 501 L220 172 C186 208 169 256 169 314 L169 314 L169 314 Z M507 171 C473 134 425 115 364 115 C334 115 308 120 285 128 L508 458 C542 421 559 373 559 314 C559 255 542 207 507 171 L507 171 Z " />
<glyph glyph-name="ugrave" unicode="&#xf9;" horiz-adv-x="682" d="M40 237 C40 203 48 172 62 142 C76 112 96 86 122 64 C148 42 179 24 217 11 C255 -1 296 -8 341 -8 C385 -8 426 -1 464 11 C502 24 534 42 559 64 C585 86 605 112 620 142 C634 172 642 203 642 237 L642 591 C642 610 625 627 606 627 L539 627 C519 627 503 610 503 591 L503 242 C503 209 488 180 458 154 C427 128 388 115 341 115 C293 115 255 128 224 154 C194 180 179 209 179 242 L179 591 C179 610 163 627 143 627 L76 627 C57 627 40 610 40 591 L40 237 Z M279 763 C261 763 251 744 261 730 L325 634 C329 629 335 625 343 625 L374 625 C390 625 400 642 393 657 L343 752 C339 759 332 763 324 763 L279 763 Z " />
<glyph glyph-name="uacute" unicode="&#xfa;" horiz-adv-x="682" d="M40 237 C40 203 48 172 62 142 C76 112 96 86 122 64 C148 42 179 24 217 11 C255 -1 296 -8 341 -8 C385 -8 426 -1 464 11 C502 24 534 42 559 64 C585 86 605 112 620 142 C634 172 642 203 642 237 L642 591 C642 610 625 627 606 627 L539 627 C519 627 503 610 503 591 L503 242 C503 209 488 180 458 154 C427 128 388 115 341 115 C293 115 255 128 224 154 C194 180 179 209 179 242 L179 591 C179 610 163 627 143 627 L76 627 C57 627 40 610 40 591 L40 237 Z M277 679 C265 655 282 627 309 627 L309 627 C321 627 332 633 338 643 L383 710 C399 733 382 765 353 765 L344 765 C330 765 318 758 312 746 L277 679 Z " />
<glyph glyph-name="ucircumflex" unicode="&#xfb;" horiz-adv-x="682" d="M40 237 C40 203 48 172 62 142 C76 112 96 86 122 64 C148 42 179 24 217 11 C255 -1 296 -8 341 -8 C385 -8 426 -1 464 11 C502 24 534 42 559 64 C585 86 605 112 620 142 C634 172 642 203 642 237 L642 591 C642 610 625 627 606 627 L539 627 C519 627 503 610 503 591 L503 242 C503 209 488 180 458 154 C427 128 388 115 341 115 C293 115 255 128 224 154 C194 180 179 209 179 242 L179 591 C179 610 163 627 143 627 L76 627 C57 627 40 610 40 591 L40 237 Z M225 696 C204 673 220 635 252 635 L253 635 C262 635 271 639 278 645 L335 698 C336 699 338 699 340 698 L398 645 C405 639 413 635 422 635 L424 635 C455 635 472 673 450 696 L404 744 C397 751 388 755 378 755 L297 755 C287 755 278 751 271 744 L225 696 Z " />
<glyph glyph-name="udieresis" unicode="&#xfc;" horiz-adv-x="682" d="M40 237 C40 203 48 172 62 142 C76 112 96 86 122 64 C148 42 179 24 217 11 C255 -1 296 -8 341 -8 C385 -8 426 -1 464 11 C502 24 534 42 559 64 C585 86 605 112 620 142 C634 172 642 203 642 237 L642 591 C642 610 625 627 606 627 L539 627 C519 627 503 610 503 591 L503 242 C503 209 488 180 458 154 C427 128 388 115 341 115 C293 115 255 128 224 154 C194 180 179 209 179 242 L179 591 C179 610 163 627 143 627 L76 627 C57 627 40 610 40 591 L40 237 Z M209 692 C209 673 225 656 245 656 L261 656 C281 656 297 673 297 692 L297 708 C297 728 281 744 261 744 L245 744 C225 744 209 728 209 708 L209 692 Z M366 692 C366 673 382 656 402 656 L418 656 C438 656 454 673 454 692 L454 708 C454 728 438 744 418 744 L402 744 C382 744 366 728 366 708 L366 692 Z " />
<glyph glyph-name="yacute" unicode="&#xfd;" horiz-adv-x="574" d="M43 627 C13 627 -4 593 14 570 L217 297 C218 296 218 295 218 294 L218 36 C218 16 234 0 254 0 L321 0 C340 0 357 16 357 36 L357 294 L357 297 L561 570 C579 593 561 627 532 627 L463 627 C452 627 441 622 434 612 L290 414 C289 412 286 412 285 414 L141 612 C134 622 123 627 112 627 L43 627 Z M235 683 C223 659 240 631 267 631 L267 631 C279 631 290 637 296 647 L341 714 C357 737 340 769 311 769 L302 769 C288 769 276 762 270 750 L235 683 Z " />
<glyph glyph-name="ydieresis" unicode="&#xff;" horiz-adv-x="574" d="M43 627 C13 627 -4 593 14 570 L217 297 C218 296 218 295 218 294 L218 36 C218 16 234 0 254 0 L321 0 C340 0 357 16 357 36 L357 294 L357 297 L561 570 C579 593 561 627 532 627 L463 627 C452 627 441 622 434 612 L290 414 C289 412 286 412 285 414 L141 612 C134 622 123 627 112 627 L43 627 Z M165 690 C165 671 181 654 201 654 L217 654 C237 654 253 671 253 690 L253 706 C253 726 237 742 217 742 L201 742 C181 742 165 726 165 706 L165 690 Z M322 690 C322 671 338 654 358 654 L374 654 C394 654 410 671 410 690 L410 706 C410 726 394 742 374 742 L358 742 C338 742 322 726 322 706 L322 690 Z " />
<glyph glyph-name="Lslash" unicode="&#x141;" horiz-adv-x="610" d="M564 123 L223 123 C221 123 220 124 220 126 L220 314 L270 365 C284 379 284 402 270 416 L251 435 C243 444 231 447 220 445 L220 590 C220 610 204 626 184 626 L117 626 C97 626 81 610 81 590 L81 316 L26 261 C12 247 12 224 26 210 L46 191 C55 181 69 178 81 182 L81 36 C81 16 97 0 117 0 L564 0 C584 0 600 16 600 36 L600 87 C600 106 584 123 564 123 L564 123 Z " />
<glyph glyph-name="lslash" unicode="&#x142;" horiz-adv-x="610" d="M564 123 L223 123 C221 123 220 124 220 126 L220 314 L270 365 C284 379 284 402 270 416 L251 435 C243 444 231 447 220 445 L220 590 C220 610 204 626 184 626 L117 626 C97 626 81 610 81 590 L81 316 L26 261 C12 247 12 224 26 210 L46 191 C55 181 69 178 81 182 L81 36 C81 16 97 0 117 0 L564 0 C584 0 600 16 600 36 L600 87 C600 106 584 123 564 123 L564 123 Z " />
<glyph glyph-name="OE" unicode="&#x152;" horiz-adv-x="1099" d="M705 503 L1046 503 C1065 503 1081 520 1081 539 L1081 590 C1081 610 1065 627 1046 627 L599 627 C579 627 563 610 563 590 L563 581 C502 619 435 636 368 636 C319 636 273 627 231 610 C107 563 35 440 35 313 C35 176 116 60 231 16 C273 -1 319 -9 368 -9 C440 -9 505 10 563 45 L563 36 C563 16 579 0 599 0 L1046 0 C1065 0 1081 16 1081 36 L1081 87 C1081 107 1065 123 1046 123 L705 123 C703 123 701 125 701 126 L701 261 C701 263 703 265 705 265 L993 265 C1013 265 1029 281 1029 301 L1029 352 C1029 372 1013 388 993 388 L705 388 C703 388 701 389 701 391 L701 500 C701 502 703 503 705 503 L705 503 Z M368 114 C248 114 174 201 174 313 C174 431 255 513 368 513 C488 513 563 425 563 313 C563 191 485 114 368 114 L368 114 Z " />
<glyph glyph-name="oe" unicode="&#x153;" horiz-adv-x="1174" d="M1088 133 C1033 121 977 115 919 115 C833 113 718 156 698 259 C697 259 697 260 697 260 C697 260 698 260 698 260 C997 252 1147 294 1147 432 C1147 550 1037 636 901 636 C760 636 677 577 630 522 C562 598 470 636 369 636 C179 636 35 490 35 313 C35 119 194 -8 369 -8 C473 -8 575 31 630 105 C702 20 814 -8 917 -8 C984 -8 1047 0 1106 17 C1121 22 1132 36 1132 52 L1132 98 C1132 121 1110 138 1088 133 L1088 133 Z M822 501 C941 540 1021 484 1021 446 C1021 401 933 379 703 379 C707 402 739 473 822 501 L822 501 Z M369 114 C247 117 174 197 174 313 C174 435 252 513 369 513 C466 513 543 454 559 362 C557 346 556 330 556 314 C556 297 557 281 559 265 C538 170 463 114 369 114 L369 114 Z " />
<glyph glyph-name="Scaron" unicode="&#x160;" horiz-adv-x="555" d="M32 456 C32 393 67 335 127 305 C191 275 315 266 370 237 C391 226 402 209 402 184 C402 151 379 130 347 122 C290 108 222 114 160 126 C136 131 108 138 78 146 C55 153 32 136 32 112 L32 66 C32 51 41 37 55 32 C127 7 201 -8 285 -8 C406 -8 540 38 540 185 C540 238 520 290 472 327 C392 388 287 371 198 413 C179 422 170 436 170 456 C170 506 229 513 273 513 C317 513 356 511 389 506 C410 503 433 499 458 493 C480 488 501 505 501 528 L501 575 C501 591 491 605 476 609 C447 618 420 624 393 628 C358 634 318 636 273 636 C154 636 41 592 32 456 L32 456 Z M386 704 C407 727 391 765 359 765 L358 765 C349 765 340 761 333 755 L276 702 C275 701 273 701 271 702 L213 755 C206 761 198 765 189 765 L187 765 C156 765 139 727 161 704 L207 656 C214 649 223 645 233 645 L314 645 C324 645 333 649 340 656 L386 704 Z " />
<glyph glyph-name="scaron" unicode="&#x161;" horiz-adv-x="550" d="M32 456 C32 393 67 335 127 305 C191 275 315 266 370 237 C391 226 402 209 402 184 C402 151 379 130 347 122 C290 108 222 114 160 126 C136 131 108 138 78 146 C55 153 32 136 32 112 L32 66 C32 51 41 37 55 32 C127 7 201 -8 285 -8 C406 -8 540 38 540 185 C540 238 520 290 472 327 C392 388 287 371 198 413 C179 422 170 436 170 456 C170 506 229 513 273 513 C317 513 356 511 389 506 C410 503 433 499 458 493 C480 488 501 505 501 528 L501 575 C501 591 491 605 476 609 C447 618 420 624 393 628 C358 634 318 636 273 636 C154 636 41 592 32 456 L32 456 Z M390 705 C411 728 395 766 363 766 L362 766 C353 766 344 762 337 756 L280 703 C279 702 277 702 275 703 L217 756 C210 762 202 766 193 766 L191 766 C160 766 143 728 165 705 L211 657 C218 650 227 646 237 646 L318 646 C328 646 337 650 344 657 L390 705 Z " />
<glyph glyph-name="Ydieresis" unicode="&#x178;" horiz-adv-x="574" d="M43 627 C13 627 -4 593 14 570 L217 297 C218 296 218 295 218 294 L218 36 C218 16 234 0 254 0 L321 0 C340 0 357 16 357 36 L357 294 C357 295 357 296 357 297 L561 570 C579 593 561 627 532 627 L463 627 C452 627 441 622 434 612 L290 414 C289 412 286 412 285 414 L141 612 C134 622 123 627 112 627 L43 627 Z M164 676 C164 657 180 640 200 640 L216 640 C236 640 252 657 252 676 L252 692 C252 712 236 728 216 728 L200 728 C180 728 164 712 164 692 L164 676 Z M321 676 C321 657 337 640 357 640 L373 640 C393 640 409 657 409 676 L409 692 C409 712 393 728 373 728 L357 728 C337 728 321 712 321 692 L321 676 Z " />
<glyph glyph-name="Zcaron" unicode="&#x17d;" horiz-adv-x="561" d="M17 36 C17 16 33 0 53 0 L500 0 C520 0 536 16 536 36 L536 87 C536 107 520 123 500 123 L202 123 C199 123 197 126 199 129 L529 512 C534 519 538 527 538 536 L538 591 C538 610 521 627 502 627 L53 627 C33 627 17 610 17 591 L17 539 C17 520 33 503 53 503 L353 503 C356 503 357 500 355 498 L26 114 C20 108 17 99 17 91 L17 36 Z M391 695 C412 718 396 756 364 756 L363 756 C354 756 345 752 338 746 L281 693 C280 692 278 692 276 693 L218 746 C211 752 203 756 194 756 L192 756 C161 756 144 718 166 695 L212 647 C219 640 228 636 238 636 L319 636 C329 636 338 640 345 647 L391 695 Z " />
<glyph glyph-name="zcaron" unicode="&#x17e;" horiz-adv-x="561" d="M17 36 C17 16 33 0 53 0 L500 0 C520 0 536 16 536 36 L536 87 C536 107 520 123 500 123 L202 123 C199 123 197 126 199 129 L529 512 C534 519 538 527 538 536 L538 591 C538 610 521 627 502 627 L53 627 C33 627 17 610 17 591 L17 539 C17 520 33 503 53 503 L353 503 C356 503 357 500 355 498 L26 114 C20 108 17 99 17 91 L17 36 Z M393 696 C414 719 398 757 366 757 L365 757 C356 757 347 753 340 747 L283 694 C282 693 280 693 278 694 L220 747 C213 753 205 757 196 757 L194 757 C163 757 146 719 168 696 L214 648 C221 641 230 637 240 637 L321 637 C331 637 340 641 347 648 L393 696 Z " />
<glyph glyph-name="circumflex" unicode="&#x2c6;" horiz-adv-x="307" d="M42 577 C21 554 37 516 69 516 L70 516 C79 516 88 520 95 526 L152 579 C153 580 155 580 157 579 L215 526 C222 520 230 516 239 516 L241 516 C272 516 289 554 267 577 L221 625 C214 632 205 636 195 636 L114 636 C104 636 95 632 88 625 L42 577 L42 577 Z " />
<glyph glyph-name="caron" unicode="&#x2c7;" horiz-adv-x="350" d="M296 593 C317 616 301 654 269 654 L268 654 C259 654 250 650 243 644 L186 591 C185 590 183 590 181 591 L123 644 C116 650 108 654 99 654 L97 654 C66 654 49 616 71 593 L117 545 C124 538 133 534 143 534 L224 534 C234 534 243 538 250 545 L296 593 L296 593 Z " />
<glyph glyph-name="ring" unicode="&#x2da;" horiz-adv-x="273" d="M77 488 C94 471 114 462 138 462 C162 462 183 471 200 488 C217 505 225 525 225 549 C225 573 217 594 200 611 C183 628 162 636 138 636 C114 636 94 628 77 611 C60 594 51 573 51 549 C51 525 60 505 77 488 L77 488 Z M103 549 C103 559 107 567 114 574 C120 581 129 584 138 584 C148 584 156 581 163 574 C170 567 173 559 173 549 C173 540 170 532 163 525 C156 518 148 515 138 515 C129 515 120 518 114 525 C107 532 103 540 103 549 L103 549 Z " />
<glyph glyph-name="tilde" unicode="&#x2dc;" horiz-adv-x="409" d="M79 538 L94 536 C108 534 121 541 129 553 C135 563 144 568 155 568 C161 568 167 566 175 562 C182 557 189 553 196 547 C203 542 212 538 224 533 C235 529 247 527 259 527 C291 527 316 536 335 555 C343 563 350 573 355 584 C366 606 352 632 327 635 L312 637 C298 639 284 632 277 620 C270 610 261 605 250 605 C245 605 239 607 231 611 C224 615 217 620 210 626 C203 631 194 635 182 640 C171 644 159 646 147 646 C115 646 89 637 71 618 C62 609 55 599 50 588 C40 566 55 540 79 538 L79 538 Z " />
<glyph glyph-name="quoteleft" unicode="&#x2018;" horiz-adv-x="249" d="M96 476 C93 454 110 435 132 435 L144 435 C160 435 174 446 179 461 L212 582 C218 605 201 627 177 627 L148 627 C130 627 114 614 112 596 L96 476 L96 476 Z " />
<glyph glyph-name="quoteright" unicode="&#x2019;" horiz-adv-x="257" d="M96 476 C93 454 110 435 132 435 L144 435 C160 435 174 446 179 461 L212 582 C218 605 201 627 177 627 L148 627 C130 627 114 614 112 596 L96 476 L96 476 Z " />
<glyph glyph-name="quotedblleft" unicode="&#x201c;" horiz-adv-x="361" d="M58 475 L58 475 C55 454 72 435 94 435 L106 435 C122 435 136 446 141 461 L174 582 C180 605 163 627 139 627 L109 627 C91 627 75 614 73 596 L58 475 Z M213 476 C210 454 227 435 249 435 L261 435 C278 435 292 446 296 461 L329 582 C336 605 318 627 295 627 L265 627 C247 627 232 614 229 596 L213 476 Z " />
<glyph glyph-name="quotedblright" unicode="&#x201d;" horiz-adv-x="366" d="M58 475 L58 475 C55 454 72 435 94 435 L106 435 C122 435 136 446 141 461 L174 582 C180 605 163 627 139 627 L109 627 C91 627 75 614 73 596 L58 475 Z M213 476 C210 454 227 435 249 435 L261 435 C278 435 292 446 296 461 L329 582 C336 605 318 627 295 627 L265 627 C247 627 232 614 229 596 L213 476 Z " />
<glyph glyph-name="guilsinglleft" unicode="&#x2039;" horiz-adv-x="298" d="M47 323 C37 310 37 292 47 279 L153 139 C160 130 171 125 182 125 L238 125 C267 125 284 159 266 183 L178 299 L178 303 L266 419 C285 443 268 477 238 477 L182 477 C171 477 160 471 153 462 L47 323 L47 323 Z " />
<glyph glyph-name="guilsinglright" unicode="&#x203a;" horiz-adv-x="298" d="M60 476 C30 476 13 442 31 418 L119 302 C120 301 120 299 119 298 L31 182 C13 158 30 124 60 124 L115 124 C127 124 137 129 144 138 L250 278 C260 291 260 309 250 322 L144 461 C137 470 127 476 115 476 L60 476 L60 476 Z " />
<glyph glyph-name="Euro" unicode="&#x20ac;" horiz-adv-x="668" d="M637 96 C634 116 616 130 596 126 C552 119 508 115 463 115 C423 115 388 120 359 130 C330 139 306 153 289 172 C281 180 274 189 268 198 L431 198 C459 198 480 215 480 235 L480 259 C480 279 459 295 431 295 L239 295 C238 301 238 308 238 314 C238 320 238 326 239 332 L431 332 C459 332 480 349 480 369 L480 393 C480 413 459 429 431 429 L268 429 C274 439 281 448 289 456 C306 474 330 489 359 498 C388 508 423 513 463 513 C508 513 552 509 596 501 C616 498 634 512 637 531 L645 578 C648 597 636 614 617 619 C568 630 516 636 461 636 C403 636 350 627 303 610 C257 593 219 570 189 540 C160 511 138 477 122 438 C121 435 120 432 119 429 L76 429 C49 429 27 413 27 393 L27 369 C27 349 49 332 76 332 L100 332 C100 326 100 320 100 314 C100 308 100 301 100 295 L76 295 C49 295 27 279 27 259 L27 235 C27 215 49 198 76 198 L119 198 C120 196 121 193 122 190 C138 151 160 117 189 87 C219 58 257 35 303 17 C350 0 403 -8 461 -8 C516 -8 568 -2 617 9 C636 14 648 31 645 50 L637 96 L637 96 Z " />
</font>
</svg>
